<?xml version="1.0" standalone="no"?>
<!DOCTYPE svg PUBLIC "-//W3C//DTD SVG 1.1//EN" "http://www.w3.org/Graphics/SVG/1.1/DTD/svg11.dtd" >
<svg xmlns="http://www.w3.org/2000/svg">
<metadata></metadata>
<defs>
<font id="nanlightbold" horiz-adv-x="1241" >
<font-face units-per-em="2048" ascent="1638" descent="-410" />
<missing-glyph horiz-adv-x="573" />
<glyph horiz-adv-x="2048" />
<glyph horiz-adv-x="2048" />
<glyph unicode="&#xd;" horiz-adv-x="681" />
<glyph unicode=" "  horiz-adv-x="573" />
<glyph unicode="&#x09;" horiz-adv-x="573" />
<glyph unicode="&#xa0;" horiz-adv-x="573" />
<glyph unicode="!" horiz-adv-x="868" d="M301 14q0 59 41 102.5t102 43.5t103.5 -43t42.5 -103q0 -59 -42.5 -101t-103.5 -42t-102 42t-41 101zM315 1403q-2 43 4.5 51t34.5 8h183q29 0 33.5 -8t2.5 -51l-28 -1081v-25q-2 -4 -2 -9t-33 -5h-152q-8 0 -8 4q-6 6 -6 35z" />
<glyph unicode="&#x22;" horiz-adv-x="880" d="M190 987v432q0 25 25 25h147q27 0 27 -25v-432q0 -25 -27 -24h-147q-25 0 -25 24zM489 987v432q0 25 27 25h148q25 0 24 -25v-432q0 -25 -24 -24h-148q-27 0 -27 24z" />
<glyph unicode="#" d="M82 406v126q0 29 6 35t37 6h194l29 222h-164q-33 0 -39 5t-6 36v120q0 31 6.5 37t38.5 6h195l55 422q4 25 9.5 30t31.5 5h135q27 0 32 -9t1 -32l-51 -416h174l55 418q4 29 11.5 34t37.5 5h111q41 0 47 -8t2 -37l-53 -412h153q29 0 36.5 -5t7.5 -33v-127q0 -29 -7.5 -35 t-36.5 -6h-178l-30 -222h145q31 0 38 -5t7 -36v-120q0 -31 -6 -37t-39 -6h-172l-57 -422q-4 -25 -9.5 -30t-31.5 -5h-138q-27 0 -30.5 6t-1.5 29l51 422h-172l-55 -418q-4 -29 -12.5 -34t-37.5 -5h-110q-41 0 -48 5t-3 34l55 418h-170q-31 0 -37 5t-6 34zM535 571h170 l30 222h-172z" />
<glyph unicode="$" d="M197 1055q0 139 94 250q98 115 250 151v139q0 10 7 17.5t17 7.5h144q10 0 17 -7t7 -18v-125q129 -6 234 -43q23 -8 26.5 -16t-0.5 -22l-26 -132q-4 -23 -12.5 -29.5t-41.5 3.5q-90 29 -180 37v-514q201 -131 270.5 -223.5t67.5 -215.5q0 -186 -121 -307 q-80 -84 -217 -127v-145q0 -25 -24 -25h-144q-25 0 -24 25v125q-92 4 -178.5 22.5t-118 33.5t-37.5 21.5t-2 28.5l14 154q2 14 9.5 17t27.5 -6t51 -17q33 -10 70 -19q94 -20 164 -20v542q-178 111 -261 209.5t-83 227.5zM430 1049q0 -80 111 -170v358q-111 -51 -111 -188z M733 117q106 59 107 192q0 90 -107 180v-372z" />
<glyph unicode="%" horiz-adv-x="2232" d="M229 1057q0 299 197 393q70 33 162 33q180 0 274 -125q82 -102 82 -298t-88 -308.5t-268 -112.5t-279 119q-80 102 -80 299zM444 1059q-2 -139 72 -193q29 -20 70 -20q141 0 141 212t-141 212t-142 -211zM559 -96l883 1581q14 25 37 24h163q43 0 23 -43l-883 -1577 q-16 -31 -55 -30h-143q-53 0 -25 45zM1284 306q0 198 80 302q94 123 277.5 123t275.5 -123q82 -106 82 -302t-82 -298q-94 -121 -275.5 -121t-277.5 121q-80 100 -80 298zM1499 305q0 -135 72 -190q27 -20 69 -21q140 0 140 211t-140.5 211t-140.5 -211z" />
<glyph unicode="&#x26;" horiz-adv-x="1488" d="M119 330q0 291 311 448q-61 76 -109.5 156t-48.5 177t39 167t101 115q125 94 295 92q162 2 270 -88q117 -96 117 -262q0 -119 -76 -225.5t-244 -184.5l299 -338q41 59 63.5 150.5t22.5 151t5 65.5t32 6h143q25 0 30 -6t5 -51.5t-10 -112.5q-12 -70 -33 -135 q-41 -137 -108 -228l247 -272q14 -14 14.5 -28.5t-34.5 -14.5h-190q-29 0 -40.5 2t-23.5 16l-117 125q-186 -176 -442 -176q-217 0 -361 111q-157 121 -157 340zM355.5 337q-1.5 -56 22 -104.5t64.5 -80.5q82 -63 199 -64q76 0 154.5 35t138.5 92l-365 408 q-147 -70 -196 -189q-16 -41 -17.5 -97zM506 1112q0 -76 129 -240q100 47 141 82q80 70 80 148t-39 127t-116.5 49t-136 -41t-58.5 -125z" />
<glyph unicode="'" horiz-adv-x="620" d="M207 987v434q0 10 7 17.5t17 7.5h187q10 0 17 -7t7 -18v-434q0 -10 -7 -17t-17 -7h-187q-10 0 -17 7t-7 17z" />
<glyph unicode="(" horiz-adv-x="743" d="M156 618q0 526 366 984q12 18 29 18h151q27 0 13 -23q-319 -504 -320 -979q0 -481 320 -978q16 -23 -13 -23h-151q-16 0 -29 18q-367 453 -366 983z" />
<glyph unicode=")" horiz-adv-x="743" d="M39 -360q319 498 319 978q0 475 -319 979q-14 23 12 23h152q16 0 28 -18q367 -457 367 -985.5t-367 -981.5q-12 -18 -28 -18h-152q-29 0 -12 23z" />
<glyph unicode="*" d="M207 723.5q-6 11.5 10 54.5l33 90q16 45 26 50q14 6 54 -13l205 -90l-15 223q-4 45 4 54q8 10 56 10h94q49 0 57 -8.5t8 -20.5t-2 -35l-16 -223l207 84q41 16 49 12q10 -4 29 -49l28 -90q16 -47 9 -58.5t-48 -21.5l-219 -53l142 -162q29 -35 27.5 -47t-36.5 -39l-75 -57 q-41 -33 -53.5 -31t-35.5 41l-112 188l-125 -190q-25 -39 -36 -42t-50 24l-76 57q-41 27 -42 40t28 48l139 170l-215 61q-43 12 -49 23.5z" />
<glyph unicode="+" horiz-adv-x="1339" d="M106 588v160q0 10 7.5 17t17.5 7h434v430q0 10 7.5 17.5t17.5 7.5h168q10 0 17 -7.5t7 -17.5v-430h432q25 0 25 -24v-160q0 -25 -25 -25h-432v-432q0 -25 -24 -25h-168q-25 0 -25 25v432h-434q-10 0 -17.5 7.5t-7.5 17.5z" />
<glyph unicode="," horiz-adv-x="620" d="M115 -365l100 373q12 33 43 33h199q39 0 26 -39l-141 -367q-10 -27 -45 -26h-164q-10 0 -16 7t-2 19z" />
<glyph unicode="-" horiz-adv-x="743" d="M109 614v164q0 10 8 17.5t18 7.5h496q27 0 26 -25v-164q0 -25 -26 -24h-496q-10 0 -18 7t-8 17z" />
<glyph unicode="." horiz-adv-x="620" d="M166 -80q0 66 46 111t112 45t110.5 -45t44.5 -111t-44.5 -112t-110.5 -46t-112 46.5t-46 111.5z" />
<glyph unicode="/" horiz-adv-x="768" d="M8 -211l531 1673q8 23 32 23h162q47 0 35 -41l-528 -1669q-12 -29 -47 -29h-148q-51 0 -37 43z" />
<glyph unicode="0" d="M115 670q0 524 252 714q100 76 262 76q291 2 415 -268q94 -201 95 -522q0 -580 -283 -738q-94 -53 -227 -53q-262 0 -388 208t-126 583zM348 670q0 -444 164 -539q51 -29 115.5 -30t117 29t89.5 97q76 139 75 443q0 444 -164 538q-53 29 -117.5 29t-115.5 -29.5 t-88 -97.5q-76 -139 -76 -440z" />
<glyph unicode="1" d="M268 1104q-14 20 6 41l314 289q12 12 30 12h109q35 0 42 -7t7 -48v-1475q0 -27 -26 -27h-164q-29 0 -29 27v1212l-151 -131q-27 -23 -46 -4z" />
<glyph unicode="2" d="M117 31q0 25 30 65l312 369q170 203 252 338t82 227t-60.5 155.5t-146.5 63.5q-162 0 -336 -100q-16 -10 -32.5 -9t-20.5 19l-29 156q-8 20 29 43q203 106 374 106q203 2 326 -108q131 -117 129 -326q0 -219 -274 -547q-102 -121 -187.5 -224t-136.5 -161h600 q29 0 29 -32v-144q0 -35 -29 -35h-872q-39 0 -39 27v117z" />
<glyph unicode="3" d="M121 -27l18 154q4 37 56 20q139 -45 196.5 -50t102.5 -7q43 0 88 4q94 10 159 56q98 68 99 204q0 104 -88 170q-96 74 -285 72h-102q-16 0 -21.5 5t-5.5 22v151q0 18 5 22.5t22 4.5h98q121 0 231 57q143 74 144 193q-2 100 -97 155q-80 47 -182 47q-119 0 -299 -67 q-41 -16 -49 18l-18 150q-8 27 30 41q193 70 348 69q203 0 338 -92q156 -106 156 -303q0 -111 -74 -215q-72 -100 -190 -152q135 -59 204.5 -150t69.5 -204q0 -221 -162 -352q-152 -123 -415 -123q-178 0 -342 57q-39 12 -35 43z" />
<glyph unicode="4" d="M55 262v152q0 23 25 53l633 952q12 16 17 21.5t26 5.5h186q16 0 18.5 -6t2.5 -25v-966h190q18 0 24.5 -5.5t6.5 -25.5v-150q0 -20 -6.5 -25t-24.5 -5h-190v-312q0 -23 -6.5 -30t-28.5 -7h-148q-23 0 -30 8.5t-7 28.5v312h-655q-20 0 -26.5 4t-6.5 20zM303 449h440v667z " />
<glyph unicode="5" d="M199 -29v166q0 37 36.5 18.5t77.5 -29.5t84 -20q86 -16 164 -16q137 0 226.5 78t89.5 213t-73 214t-241 79q-133 0 -274 -53q-80 -33 -80 36l10 756q2 23 8 29t37 6h750q27 0 26 -27v-157q0 -10 -7 -19.5t-19 -9.5h-570l-8 -381q80 18 181.5 18t191.5 -32q92 -29 158 -90 q143 -129 141 -340q0 -258 -160 -402q-145 -133 -403 -133q-113 0 -205 21.5t-115.5 34t-24.5 19.5t-1 21z" />
<glyph unicode="6" d="M129 618q0 592 363 779q131 68 321 67q145 0 252 -37q18 -6 16 -26l-6 -164q-4 -29 -33 -16q-86 33 -219 32.5t-207.5 -36t-126.5 -99.5q-92 -115 -124 -334q59 80 198 117q41 12 80 12q223 0 358 -139q137 -139 138 -368q0 -231 -135 -379q-143 -154 -379 -154 t-366 181.5t-130 563.5zM367 414q-2 -139 75 -238q78 -100 197 -100t196.5 86t77.5 230.5t-68.5 226t-197.5 81.5t-204.5 -80.5t-75.5 -205.5z" />
<glyph unicode="7" d="M133 1270v143q0 33 35 33h872q35 0 42.5 -7t7.5 -30v-125q0 -16 -11 -33l-542 -1333q-8 -16 -16.5 -22.5t-28.5 -6.5h-166q-31 0 -39 7.5t0 29.5l534 1309h-653q-14 0 -24.5 9t-10.5 26z" />
<glyph unicode="8" d="M109 313q-2 197 190 322q58 36 119 67q-266 152 -266 373q0 170 139 281q137 109 338 108q207 0 338 -102q135 -106 135 -281q0 -104 -64.5 -194t-197.5 -182q166 -98 217 -157t72.5 -112t21.5 -143t-45 -174q-41 -82 -115 -135q-147 -109 -362 -111q-203 0 -353 111 q-168 123 -167 329zM338 318.5q0 -58.5 27 -101.5q29 -43 69 -74q86 -63 195 -63q117 0 198 61q92 70 93 172q2 78 -93 160q-90 78 -196 117q-188 -57 -262 -168q-31 -45 -31 -103.5zM385 1059q0 -76 98 -160q76 -66 148 -94q74 29 131 86q109 106 108 174q0 78 -71 139 q-70 58 -168 60q-45 0 -88 -15q-43 -16 -78 -41q-80 -59 -80 -149z" />
<glyph unicode="9" d="M117 932q2 231 137 379q143 154 377.5 153.5t364.5 -181.5t130 -564q0 -592 -362 -778q-131 -68 -299.5 -68t-274.5 37q-18 6 -16 27l6 163q4 29 33 17q86 -33 219 -33t208 36t126 99q92 115 125 334q-59 -82 -199 -119q-41 -12 -80 -10q-223 -2 -358 137 q-137 139 -137 371zM342 945.5q0 -144.5 68.5 -226.5t197.5 -82t205 81t76 206q0 141 -78 239.5t-195.5 98.5t-195.5 -86t-78 -230.5z" />
<glyph unicode=":" horiz-adv-x="620" d="M166 200.5q0 61.5 46 107.5t112 46t110.5 -46t44.5 -107.5t-44.5 -108.5t-110.5 -47t-111 45q-47 49 -47 110.5zM166 1130.5q0 61.5 46 108.5t112 47t110 -45q45 -49 45 -110.5t-44.5 -107.5t-110.5 -46t-112 46t-46 107.5z" />
<glyph unicode=";" horiz-adv-x="620" d="M106 -129l99 369q12 35 45 34h190q39 0 27 -38l-141 -365q-10 -27 -45 -27h-156q-10 0 -16.5 7.5t-2.5 19.5zM170 1133.5q0 62.5 46 108.5t109.5 46t109.5 -46t46 -108.5t-46 -108.5t-109.5 -46t-109.5 46t-46 108.5z" />
<glyph unicode="&#x3c;" horiz-adv-x="1120" d="M154 569v95q0 33 4 43t24 30l809 842q27 29 33 27t6 -43v-195q0 -53 -12 -66.5t-25 -27.5l-596 -623q-16 -16 -15 -28.5t19 -32.5l592 -631l23 -25q16 -18 14 -69v-195q0 -41 -6 -43t-33 27l-809 842q-20 20 -24 30.5t-4 42.5z" />
<glyph unicode="=" horiz-adv-x="1339" d="M111 373v162q0 10 7 17t17 7h1082q10 0 17 -7t7 -17v-162q0 -10 -7 -17.5t-17 -7.5h-1082q-10 0 -17 7t-7 18zM111 799v162q0 10 7 17t17 7h1082q10 0 17 -7t7 -17v-162q0 -10 -7 -17.5t-17 -7.5h-1082q-10 0 -17 7t-7 18z" />
<glyph unicode="&#x3e;" horiz-adv-x="1120" d="M109 -135q0 53 12 66.5t24 27.5l592 631q18 20 19.5 32.5t-15.5 28.5l-596 623q-33 33 -34.5 53.5t-1.5 40.5v195q0 41 6 43t32 -27l809 -842q20 -20 24.5 -30.5t4.5 -42.5v-95q0 -33 -4 -43t-25 -30l-809 -842q-27 -29 -32.5 -27t-5.5 43v195z" />
<glyph unicode="?" horiz-adv-x="1116" d="M197 1219v170q0 20 28.5 30.5t69.5 22.5q45 8 86 16q90 16 167 16.5t154 -28.5q76 -29 134 -80q119 -109 119.5 -276.5t-65 -255.5t-114.5 -158q-51 -72 -84 -119q-70 -98 -69 -248q0 -37 -35 -37h-152q-16 0 -23 6.5t-7 48.5t12 107q12 66 33 115q51 113 122 192 q158 176 158 320q0 96 -63.5 147.5t-147.5 51.5q-152 0 -280 -56q-43 -20 -43 15zM373 13.5q0 54.5 38 94t93 39.5t95 -39.5t40 -94t-40 -93.5t-95 -39t-93 39t-38 93.5z" />
<glyph unicode="@" horiz-adv-x="1785" d="M80 664q0 332 213 565q109 121 263.5 187.5t331.5 66.5t323.5 -53.5t255 -146.5t171 -219t62.5 -269q0 -236 -197 -441q-154 -158 -342 -157q-59 0 -104 35.5t-51 84.5q-53 -53 -128 -88.5t-144.5 -35.5t-127.5 26q-57 27 -98 74q-82 96 -82 224t39 232.5t108 186.5 q156 182 365 182q70 0 132.5 -30.5t90.5 -90.5l23 88h184q-86 96 -213 148.5t-256 52.5t-237.5 -48t-188.5 -132q-170 -178 -170 -432q0 -268 176 -449q172 -176 420 -176q172 0 291 45t211 144h244q-102 -180 -297 -281.5t-451 -101.5q-172 0 -321.5 62.5t-259 173 t-173 259t-63.5 314.5zM664 569q2 -176 102 -176q63 0 118.5 40t94.5 99q84 129 84 254q0 76 -28.5 108t-94.5 32t-117 -39t-88 -96q-72 -115 -71 -222zM1200 453q-2 -31 17 -31q45 0 81.5 15.5t79.5 76.5q104 152 105 277q0 145 -90 266q-59 -186 -105.5 -324.5t-63 -188.5 t-20.5 -64.5t-4 -26.5z" />
<glyph unicode="A" horiz-adv-x="1488" d="M25 -74l598 1493q6 16 9 19.5t23 3.5h191q18 0 22 -3t11 -20l598 -1493q2 -6 2 -11q0 -17 -25 -17h-2h-188q-14 0 -20.5 3t-12.5 17l-148 369h-667l-148 -369q-4 -14 -10 -17t-20 -3h-189q-27 0 -27 15q0 6 3 13zM500 502h497l-247 631z" />
<glyph unicode="B" d="M184 -82v1495q0 29 25 29h354q233 0 363.5 -96t130.5 -295q0 -244 -193 -346q115 -43 176 -144q57 -92 60 -203q0 -231 -151.5 -345.5t-438.5 -114.5h-301q-25 0 -25 20zM414 117h100q197 0 275.5 62t78.5 171q0 238 -376 238h-78v-471zM418 809h110q162 0 229.5 62.5 t67.5 154.5q0 199 -262 199h-145v-416z" />
<glyph unicode="C" horiz-adv-x="1376" d="M133 669.5q0 358.5 209 579.5q211 221 561 221q209 0 340 -40q23 -6 27 -16q3 -6 3 -17q0 -6 -1 -13l-4 -151q0 -33 -10.5 -33t-34.5 8q-154 47 -300.5 47t-245.5 -43t-169 -120q-139 -160 -139 -422q0 -256 147 -420q152 -168 385 -170q205 0 320 41q43 16 43 -12 l8 -146q1 -8 1 -14q0 -12 -3 -19q-6 -8 -47 -20q-145 -41 -319.5 -41t-317 57.5t-242.5 163.5q-211 221 -211 579.5z" />
<glyph unicode="D" horiz-adv-x="1488" d="M182 -55v1444q0 39 7.5 46t46.5 7h348q399 0 594 -225q170 -195 170 -543q0 -190 -66 -346q-152 -356 -631 -418q-86 -12 -170 -12h-250q-35 0 -42 8t-7 39zM420 117h92q256 0 408 125q192 145 192 440q0 250 -111 381q-131 162 -421 162h-160v-1108z" />
<glyph unicode="E" horiz-adv-x="1179" d="M199 -45v1431q0 41 7 48.5t46 7.5h727q23 0 27 -7.5t4 -25.5v-152q0 -20 -6.5 -27t-24.5 -7h-555v-418h528q31 0 31 -33v-154q0 -35 -31 -34h-528v-467h580q29 0 28 -35v-154q0 -32 -26 -32h-2h-748q-41 0 -49 7t-8 52z" />
<glyph unicode="F" horiz-adv-x="1030" d="M178 -72v1477q0 23 8.5 30t24.5 7h731q10 0 17.5 -7.5t7.5 -17.5v-164q0 -29 -25 -28h-536v-424h507q27 0 27 -25v-166q0 -25 -27 -24h-507v-658q0 -30 -27 -30h-2h-168q-31 0 -31 30z" />
<glyph unicode="G" horiz-adv-x="1632" d="M147 670q0 352 213 573q217 225 576 225q229 0 401 -53q33 -8 29 -29l-25 -174q-4 -31 -41 -18q-180 57 -334.5 57t-255 -42t-171.5 -119q-152 -162 -152 -420q2 -281 154 -437q142 -149 383 -149h10q195 0 260 33v411h-338q-27 0 -27 25v164q0 12 9.5 20t19.5 8h524 q31 0 39.5 -10t8.5 -41v-676q0 -49 -41 -73q-102 -55 -332 -72q-66 -4 -123 -4q-350 0 -563 209q-223 219 -224 592z" />
<glyph unicode="H" horiz-adv-x="1488" d="M199 -78v1495q0 10 7 17.5t17 7.5h183q10 0 17 -7.5t7 -17.5v-614h635v614q0 10 7 17.5t18 7.5h182q10 0 17 -7.5t7 -17.5v-1495q0 -10 -7 -17t-17 -7h-182q-25 0 -25 24v666h-635v-666q0 -24 -22 -24h-2h-183q-10 0 -17 7t-7 17z" />
<glyph unicode="I" horiz-adv-x="495" d="M145 -76v1491q0 27 27 27h186q27 0 27 -27v-1491q0 -26 -27 -26h-186q-27 0 -27 26z" />
<glyph unicode="J" horiz-adv-x="743" d="M43 -72v168q0 16 14 17q8 2 29 -7q33 -12 108.5 -12t113.5 48t38 175v1100q0 10 8 17.5t19 7.5h182q10 0 18.5 -7.5t8.5 -17.5v-1089q0 -221 -70 -326q-45 -66 -125 -94.5t-137 -28.5q-123 0 -165 10.5t-42 38.5z" />
<glyph unicode="K" horiz-adv-x="1312" d="M168 -78v1495q0 25 25 25h182q25 0 24 -25v-651l527 647q14 20 30 21h224q23 0 24.5 -6.5t-10.5 -22.5l-510 -641l569 -838q6 -9 6 -15q0 -11 -22 -11h-207q-23 0 -32 5t-21 21l-442 654l-136 -168v-490q0 -24 -22 -24h-2h-182q-25 0 -25 24z" />
<glyph unicode="L" horiz-adv-x="991" d="M180 -78v1495q0 10 7.5 17.5t17.5 7.5h184q10 0 17.5 -7.5t7.5 -17.5v-1304h530q25 0 25 -27v-164q0 -10 -7.5 -17t-17.5 -7h-739q-10 0 -17.5 7t-7.5 17z" />
<glyph unicode="M" horiz-adv-x="1984" d="M184 -80v1479q0 29 6.5 36t38.5 7h244q14 0 17.5 -5t9.5 -20l485 -1204l485 1204q6 14 9.5 19.5t17.5 5.5h244q33 0 39 -7.5t6 -35.5v-1479q0 -22 -23 -22h-2h-190q-16 0 -20.5 5t-4.5 17v1112l-444 -1108q-4 -10 -9.5 -12t-25.5 -2h-164q-20 0 -25.5 2t-9.5 12 l-444 1108v-1112q0 -12 -4 -17t-21 -5h-190q-25 0 -25 22z" />
<glyph unicode="N" horiz-adv-x="1488" d="M174 -70v1477q0 25 8 32t31 7h188q16 0 24.5 -5t20.5 -28l644 -1104v1104q0 20 6 26.5t26 6.5h170q20 0 25.5 -6t5.5 -27v-1476q0 -25 -7 -32t-30 -7h-188q-16 0 -24.5 6t-20.5 26l-643 1106v-1106q0 -20 -6.5 -26t-26.5 -6h-170q-16 0 -24.5 6t-8.5 26z" />
<glyph unicode="O" horiz-adv-x="1611" d="M125 670q0 344 166 563q184 242 520 242q174 0 303 -66q127 -68 213 -178q168 -218 168 -560v-17q-4 -354 -178 -572q-174 -220 -512 -220h-1q-337 0 -517 240q-162 214 -162 560v8zM362 670v-9q0 -230 105 -391q121 -188 344 -188t342 188q104 164 104 399.5t-102 395.5 q-123 190 -344 190h-5q-218 0 -339 -186q-106 -162 -105 -399z" />
<glyph unicode="P" horiz-adv-x="1181" d="M197 -76v1493q0 10 7 17.5t17 7.5h414q227 0 359 -110.5t132 -344.5q0 -221 -143 -344q-139 -119 -367 -119h-186v-600q0 -26 -25 -26h-2h-182q-25 0 -24 26zM430 737h166q137 0 217 58.5t80 184.5t-63.5 186.5t-165.5 60.5h-234v-490z" />
<glyph unicode="Q" horiz-adv-x="1611" d="M125 666q0 350 162 559q92 121 227 184q133 63 301 64q322 0 518 -248q156 -201 164 -504q1 -19 1 -37q0 -269 -109 -479q-59 -119 -179 -213q-35 -29 -65 -43l289 -289q19 -20 19 -32q0 -17 -38 -17h-209q-29 0 -37 3t-20 15l-234 238q-49 -8 -104 -8q-328 2 -512 223 q-174 211 -174 576v8zM362 666q0 -240 107 -400q123 -186 346 -186q205 2 324 170q119 163 119 405q0 245 -116 422q-116 176 -336 176t-339 -188q-104 -166 -105 -399z" />
<glyph unicode="R" horiz-adv-x="1273" d="M195 -76v1493q0 10 7 17.5t17 7.5h414q227 0 360 -110.5t133 -344.5q0 -150 -65.5 -253t-179.5 -156l342 -652q4 -8 4 -14q0 -14 -26 -14h-3h-172q-23 0 -32 3t-19 17l-313 606h-234v-600q0 -26 -25 -26h-2h-182q-25 0 -24 26zM428 737h168q295 0 295 252 q0 117 -62.5 177.5t-166.5 60.5h-234v-490z" />
<glyph unicode="S" horiz-adv-x="1116" d="M137 1053v5q0 169 133 290q135 125 342 125q172 0 293 -46q37 -12 29 -41l-27 -131q-4 -23 -13 -30.5t-36 1.5t-63.5 18t-75.5 16q-55 9 -96 9q-24 0 -43 -3q-115 -18 -161 -74.5t-46 -142.5q0 -51 53 -114t169 -132.5t199 -131t132 -118.5q86 -102 86 -238 q0 -180 -121 -307q-53 -57 -136 -97t-154 -46q-43 -4 -81 -4q-26 0 -49 2q-61 6 -119 14q-176 29 -205 62q-6 8 -2 30l15 152q2 16 10 20t31.5 -6t68.5 -23.5t101 -21.5q69 -11 126 -12q172 0 240 102q37 55 39 148q0 39 -50 106.5t-154.5 129t-188.5 119.5t-137 116 q-106 113 -109 254z" />
<glyph unicode="T" horiz-adv-x="1116" d="M31 1253v164q0 10 7 17.5t17 7.5h1028q10 0 17.5 -7.5t7.5 -17.5v-164q0 -27 -25 -26h-399v-1305q0 -24 -23 -24h-2h-182q-25 0 -24 24v1305h-398q-25 0 -24 26z" />
<glyph unicode="U" horiz-adv-x="1488" d="M186 449v964q0 10 7.5 20.5t17.5 10.5h182q10 0 17.5 -8.5t7.5 -18.5v-968q0 -160 84 -262.5t250 -102.5t248.5 100.5t82.5 264.5v968q0 10 7.5 18.5t17.5 8.5h182q10 0 17.5 -10.5t7.5 -20.5v-964q0 -313 -195 -467q-152 -119 -367.5 -119t-371.5 119q-195 147 -195 467 z" />
<glyph unicode="V" horiz-adv-x="1363" d="M8 1413q-2 7 -2 13q0 4 2 8q4 8 33 8h176q16 0 22.5 -3t10.5 -18l436 -1192l440 1192q6 14 12.5 17.5t22.5 3.5h176q27 0 32 -8q3 -4 3 -10q0 -5 -2 -11l-559 -1493q-6 -16 -12 -19t-21 -3h-178q-14 0 -20.5 3t-12.5 19z" />
<glyph unicode="W" horiz-adv-x="2107" d="M23 1413q-2 7 -2 13q0 4 2 8q4 8 30 8h170q14 0 20.5 -3t10.5 -18l340 -1153l332 1153q4 14 11 17.5t21 3.5h193q14 0 21.5 -3t11.5 -18l332 -1153l339 1153q4 14 10.5 17.5t20.5 3.5h170q27 0 31 -8q2 -4 2 -9t-2 -12l-432 -1493q-4 -16 -10.5 -19t-22.5 -3h-195 q-16 0 -22 3t-10 19l-340 1163l-340 -1163q-4 -16 -9.5 -19t-23.5 -3h-195q-16 0 -22 3t-10 19z" />
<glyph unicode="X" horiz-adv-x="1363" d="M43 -76l516 772l-479 721q-14 25 18 25h207q23 0 29 -12l356 -535l359 535q6 12 28 12h207q33 0 19 -25l-480 -721l516 -772q8 -12 8 -18q0 -8 -12 -8h-2h-219q-23 0 -31 14l-391 588l-393 -588q-8 -14 -31 -14h-219q-14 0 -14 8q0 7 8 18z" />
<glyph unicode="Y" horiz-adv-x="1363" d="M33 1415q-4 8 -4 14q0 13 22 13h207q20 0 27 -12l405 -658l408 658q6 12 26 12h207q23 0 23 -13q0 -6 -4 -14l-545 -876v-617q0 -24 -23 -24h-2h-182q-25 0 -25 24v619z" />
<glyph unicode="Z" horiz-adv-x="1116" d="M53 66q0 8 5 18l10 20l684 1123h-654q-27 0 -26 26v164q0 10 8 17.5t18 7.5h912q10 0 18 -7.5t8 -17.5v-147q0 -8 -12 -33l-686 -1124h702q25 0 25 -27v-164q0 -10 -7 -17t-18 -7h-962q-10 0 -17.5 7t-7.5 17v144z" />
<glyph unicode="[" horiz-adv-x="743" d="M238 -354v1947q0 10 7 18.5t17 8.5h348q27 0 27 -27v-151q0 -25 -27 -25h-153v-1595h153q27 0 27 -25v-151q0 -27 -27 -27h-348q-10 0 -17 8t-7 19z" />
<glyph unicode="\" horiz-adv-x="1978" d="M88 655v142q0 10 8 17t19 7h200l-114 504q-4 14 0 21.5t30 7.5h154q14 0 20.5 -3t10.5 -18l112 -512h228l116 512q4 14 9.5 17.5t19.5 3.5h172q14 0 19.5 -3t9.5 -18l117 -512h227l113 512q4 14 10 17.5t20 3.5h154q27 0 31 -7.5t0 -21.5l-115 -504h199q27 0 26 -24v-142 q0 -10 -8 -17t-18 -7h-240l-164 -729q-4 -14 -8 -17.5t-23 -3.5h-161q-23 0 -26 3t-7 18l-166 729h-152l-166 -729q-4 -14 -7 -17.5t-25 -3.5h-162q-18 0 -22.5 3t-8.5 18l-164 729h-241q-10 0 -18.5 7t-8.5 17zM569 631l70 -318l72 318h-142zM956 821h62l-31 140zM1264 631 l71 -318l70 318h-141z" />
<glyph unicode="]" horiz-adv-x="743" d="M106 -203q0 25 25 25h156v1595h-156q-25 0 -25 25v151q0 10 7.5 18.5t17.5 8.5h350q10 0 17.5 -8t7.5 -19v-1947q0 -10 -7 -18.5t-18 -8.5h-350q-10 0 -17.5 8t-7.5 19v151z" />
<glyph unicode="^" horiz-adv-x="1339" d="M104 508l465 911q8 18 31 19h143q14 0 19.5 -2t11.5 -17l463 -911q16 -31 -31 -31h-174q-14 0 -19 3t-14 20l-327 661l-330 -661q-8 -16 -13 -19.5t-20 -3.5h-174q-47 0 -31 31z" />
<glyph unicode="_" horiz-adv-x="1116" d="M0 -176q0 10 7 17t18 7h1069q10 0 17 -7t7 -17v-164q0 -10 -7 -17.5t-17 -7.5h-1069q-10 0 -17.5 7.5t-7.5 17.5v164z" />
<glyph unicode="`" horiz-adv-x="495" d="M-4 1461.5q4 11.5 18 11.5h240q16 0 21.5 -3.5t15.5 -19.5l184 -276q14 -23 -6 -23h-168q-35 0 -49 20l-250 267q-10 12 -6 23.5z" />
<glyph unicode="a" horiz-adv-x="1116" d="M94 223q0 211 152 314q156 102 499 104q0 150 -90 199q-30 18 -93 18h-13q-143 0 -289 -90q-33 -20 -44 -18t-11 22v156q0 8 -1 17t3 16q6 8 53 32q133 70 322 70q387 0 387 -416v-485q0 -166 8 -230q1 -4 1 -8q0 -25 -24 -24h-166q-14 0 -18 3t-4 15v92 q-51 -72 -130 -107.5t-161 -35.5t-151 22q-74 23 -123 68q-106 96 -107 266zM328 225q0 -78 45 -116.5t121 -38.5q117 0 187.5 86t70.5 268v22q-228 0 -326 -55t-98 -166z" />
<glyph unicode="b" d="M168 -74v1612q0 27 27 27h167q14 0 19.5 -5.5t5.5 -21.5v-584q117 125 283 125q215 0 342 -164q127 -162 127 -438q0 -285 -123 -444q-125 -164 -346 -164q-82 0 -162 39t-121 96v-78q0 -33 -31 -32h-155q-33 0 -33 32zM387 477v-9q0 -180 76 -288q74 -104 190.5 -104 t186 100t69.5 294t-67.5 297t-192.5 103t-193.5 -97t-68.5 -296z" />
<glyph unicode="c" horiz-adv-x="991" d="M100 467q0 260 157 425t413 165q150 0 254 -35q15 -3 15 -23q0 -4 -1 -10l-18 -141q-4 -29 -35 -23q-78 29 -231.5 29t-239.5 -106.5t-86 -277.5t80 -274q80 -102 228 -120q49 -6 95 -5q90 0 164 23q20 8 25.5 2t7.5 -18l10 -141q1 -7 1 -12q0 -8 -2 -12q-3 -7 -22.5 -13 t-52.5 -13q-35 -6 -71 -10q-56 -6 -108 -6q-288 0 -447 184q-135 156 -136 412z" />
<glyph unicode="d" d="M117 477v9q0 270 125 429q127 164 344 164q166 0 282 -125v584q0 16 5.5 21.5t19.5 5.5h168q27 0 26 -27v-1612q0 -16 -10 -24t-22 -8h-156q-31 0 -31 32v78q-41 -57 -120.5 -96t-176 -39t-182.5 41q-86 45 -147 123q-123 162 -125 444zM346 470q0 -194 69.5 -294 t192.5 -100q109 0 183 104q78 110 78 301q1 194 -69 292q-68 97 -193.5 97t-193 -103t-67.5 -297z" />
<glyph unicode="e" horiz-adv-x="1116" d="M100 467q2 242 117 407q129 186 361 187q233 0 354 -174q104 -152 104 -414l-2 -59q0 -16 -9 -24.5t-19 -8.5h-674q10 -137 86 -224t207 -87q182 0 311 77q14 8 18 -2t4 -26v-142q0 -33 -30 -49q-115 -61 -314 -61q-254 0 -384 152.5t-130 447.5zM336 584h469 q0 100 -53 182q-64 98 -166 98q-57 0 -99.5 -24.5t-72.5 -63.5q-59 -74 -78 -192z" />
<glyph unicode="f" horiz-adv-x="743" d="M55 848v158q0 10 7.5 17t17.5 7h170v123q0 213 63 320q75 118 243 118h3q92 0 143 -18q14 -8 15 -29l-8 -139q-1 -35 -19 -31q-63 16 -108 17q-76 0 -101 -91q-12 -61 -12 -133v-137h197q25 0 24 -24v-158q0 -10 -7 -17.5t-17 -7.5h-197v-903q0 -24 -23 -24h-2h-168 q-25 0 -24 24v903h-172q-10 0 -17.5 7.5t-7.5 17.5z" />
<glyph unicode="g" d="M115 465q0 303 121.5 448.5t349.5 145.5q121 -2 235 -76q33 -20 58 -45l-2 72q-2 16 2 22t24 6h162q25 0 25 -30v-846q0 -276 -135.5 -429t-395.5 -153q-180 0 -319 51q-18 10 -25.5 16.5t-7.5 20.5l10 166q4 39 41 21q139 -70 287.5 -70t227.5 69.5t85 190.5 q-53 -57 -124.5 -86t-158 -29t-174.5 41t-151 111q-135 150 -135 383zM344 465q0 -154 78 -244q74 -86 178 -86q117 0 193 88q80 93 80 261q0 170 -71 272q-69 102 -192 102q-266 0 -266 -393z" />
<glyph unicode="h" d="M182 -80v1614q0 10 7.5 17.5t17.5 7.5h168q10 0 17 -7.5t7 -17.5v-551q117 98 271 98q406 0 405 -501v-660q0 -10 -7 -17t-17 -7h-168q-27 0 -27 24v658q0 154 -44 224t-140 70q-215 0 -273 -163v-789q0 -24 -22 -24h-2h-168q-10 0 -17.5 7t-7.5 17z" />
<glyph unicode="i" horiz-adv-x="495" d="M121 1384.5q0 57.5 40 99.5t99 42t100 -41q41 -43 41 -100.5t-41 -97.5t-100 -40t-99 40t-40 97.5zM147 -80v1079q0 10 7.5 17.5t17.5 7.5h172q10 0 17.5 -7t7.5 -18v-1079q0 -10 -7.5 -17t-17.5 -7h-172q-10 0 -17.5 7t-7.5 17z" />
<glyph unicode="j" horiz-adv-x="550" d="M14 -254q0 18 25 18q24 -4 45 -4q32 0 56 10q40 15 46 52q8 37 9 190v989q0 27 24 27h172q23 0 23 -27v-995q0 -217 -52 -309q-63 -121 -215 -121q-86 0 -114 10q-18 8 -19 29v131zM168 1389q0 59 40 99t98.5 40t100.5 -40t42 -99q0 -60 -42 -99t-100.5 -39t-98.5 39 t-40 99z" />
<glyph unicode="k" horiz-adv-x="1064" d="M141 -80v1614q0 10 7.5 17.5t17.5 7.5h166q27 0 26 -25v-940l390 418q16 18 32 18h203q39 0 12 -29l-399 -444l444 -635q7 -10 7 -16q0 -10 -19 -10h-2h-192q-23 0 -32 5t-20 21l-327 469l-97 -110v-361q0 -24 -24 -24h-2h-166q-10 0 -17.5 7t-7.5 17z" />
<glyph unicode="l" horiz-adv-x="495" d="M152 -80v1614q0 10 7 17.5t17 7.5h172q10 0 17.5 -7.5t7.5 -17.5v-1614q0 -10 -7.5 -17t-17.5 -7h-174q-23 0 -22 24z" />
<glyph unicode="m" horiz-adv-x="1859" d="M170 1006v6q0 21 29 20h174q18 0 18 -16l-2 -72q41 47 112.5 80t165 33t181.5 -49.5t127 -145.5q47 98 139 146.5t197 48.5q174 0 280.5 -103.5t106.5 -289.5v-738q0 -10 -7.5 -18t-17.5 -8h-170q-10 0 -18 9t-8 19v709q0 96 -45.5 156.5t-119 60.5t-121.5 -25.5 t-81 -70.5q-68 -90 -68 -238v-594q0 -26 -22 -26h-2h-170q-10 0 -18.5 9t-8.5 19v709q0 217 -180 217q-115 0 -179.5 -69.5t-64.5 -192.5v-666q0 -26 -22 -26h-2h-170q-10 0 -17.5 9t-7.5 19v815q0 180 -8 263z" />
<glyph unicode="n" d="M176 1006v6q0 21 29 20h162q23 0 18 -16l-2 -74q123 119 304 119t284.5 -116t103.5 -335v-684q0 -26 -22 -26h-2h-170q-10 0 -17.5 9t-7.5 19v652q0 147 -46 212.5t-144 65.5q-264 0 -265 -291v-641q0 -26 -22 -26h-2h-170q-10 0 -17.5 9t-7.5 19v815q0 201 -6 263z" />
<glyph unicode="o" d="M94 465q0 256 135 420q145 176 399.5 176t399.5 -176q135 -162 135 -415t-127 -415q-152 -188 -407 -188q-254 0 -400 176q-135 164 -135 422zM322 465q0 -156 73 -270q82 -127 234 -127t233 127q74 115 74 270q0 158 -74 268q-83 127 -233 127q-152 0 -234 -127 q-74 -113 -73 -268z" />
<glyph unicode="p" d="M158 -387v1388q0 33 30 33h158q29 0 29 -33v-73q121 125 284 125q217 0 345 -162q123 -160 124 -445v-9q0 -268 -124 -427q-125 -162 -345 -162q-82 0 -157.5 35t-126.5 94v-364q0 -16 -4 -21.5t-19 -5.5h-170q-25 0 -24 27zM375 440.5q0 -192.5 71.5 -289t194.5 -96.5 t190.5 102.5t67.5 296t-69.5 292t-186.5 98.5t-192.5 -105.5t-75.5 -298z" />
<glyph unicode="q" d="M119 446q0 285 123 445q125 162 346 162q162 0 282 -125v73q0 33 31 33h156q33 0 33 -33v-1388q0 -27 -27 -27h-168q-14 0 -19.5 5.5t-5.5 21.5v364q-51 -59 -125.5 -94t-170 -35t-181.5 41q-86 43 -147 121q-127 162 -127 436zM348 453.5q0 -193.5 67.5 -296 t190.5 -102.5t193.5 96.5t70.5 297.5v9q0 180 -75 283q-72 102 -191 103h-1q-118 0 -187 -98q-68 -99 -68 -292.5z" />
<glyph unicode="r" horiz-adv-x="743" d="M182 1001q0 18 6.5 23.5t20.5 5.5h170q14 0 16 -4t2 -14v-90q51 86 146 122q29 12 61 12q10 0 20 1l42 -1q32 -1 54.5 -13.5t25 -21.5t2.5 -17v-154q0 -8 -7 -19q-8 -12 -36 -4q-45 12 -83 12q-80 0 -130 -53q-89 -93 -89 -320v-5v-533q0 -28 -22 -28h-2h-170 q-23 0 -23 30v826z" />
<glyph unicode="s" horiz-adv-x="868" d="M86 -53l12 133q2 20 6 24q4 2 50 -10q100 -31 231 -31h16q90 0 134.5 45.5t44.5 91.5t-22.5 79.5t-77 67.5t-114 68t-121 69.5t-105.5 100t-44 146.5t31 144.5t82 103.5q98 82 258 82q123 0 233 -33q57 -16 62 -29q0 -4 -2 -16l-12 -131q-2 -23 -10.5 -26t-30.5 1 q-39 14 -78 23q-78 16 -156 16t-113 -39q-35 -37 -34 -82q0 -78 137 -149q127 -61 199.5 -115.5t109.5 -117t37 -150.5q0 -172 -137 -272q-111 -74 -262 -74q-133 0 -207 18.5t-87.5 24.5t-22.5 13q-7 6 -7 18v6z" />
<glyph unicode="t" horiz-adv-x="743" d="M55 844v162q0 10 7.5 17t17.5 7h170v287q0 10 8 17t18 7h166q27 0 27 -24v-287h197q10 0 17 -7t7 -17v-162q0 -10 -7 -17.5t-17 -7.5h-197v-528q0 -139 7 -176t38 -45q20 -5 40 -6q12 0 24 2q78 10 105.5 21t31.5 8t8 -19l16 -135q2 -14 -10 -25q-29 -18 -91.5 -33.5 t-141 -15.5t-130 36t-78 86t-32.5 121.5t-6 194.5v514h-170q-10 0 -17.5 7.5t-7.5 17.5z" />
<glyph unicode="u" d="M182 317v687q0 10 7.5 19t17.5 9h168q10 0 18 -10t8 -21v-651q0 -154 50.5 -217t155 -63t177 84t72.5 249v601q0 10 7 19t18 9h170q10 0 17 -11t7 -22v-835l4 -238q0 -27 -22 -26h-166q-27 0 -23 20v82q-53 -66 -129.5 -100.5t-160.5 -34.5q-199 0 -297.5 116.5 t-98.5 333.5z" />
<glyph unicode="v" horiz-adv-x="991" d="M14 1008q-2 5 -2 9t2 7q4 6 27 6h178q20 0 27 -16l256 -772l254 772q6 16 28 16h181q23 0 27 -6q2 -3 1 -6q0 -4 -2 -10l-377 -1088q-4 -12 -8 -15t-16 -3h-176q-20 0 -27 18z" />
<glyph unicode="w" horiz-adv-x="1736" d="M7 1024q3 6 26 6h178q20 0 27 -16l254 -801l258 801q4 16 24 16h191q20 0 24 -16l258 -801l254 801q4 16 25 16h182q20 0 24 -6q2 -3 3 -7q0 -4 -2 -9l-367 -1088q-6 -18 -25 -18h-190q-16 0 -27 18l-254 770l-256 -770q-8 -18 -28 -18h-189q-18 0 -24 18l-365 1088 q-2 6 -2 10q0 3 1 6z" />
<glyph unicode="x" horiz-adv-x="1044" d="M23 -72l372 566l-336 512q-8 10 -4 17t21 7h205q16 0 24 -12l217 -336l217 336q8 12 25 12h205q16 0 20 -7t-4 -17l-336 -512l373 -566q8 -11 8 -17q0 -7 -12 -7h-2h-211q-23 0 -31 12l-252 389l-252 -389q-10 -12 -30 -12h-211q-14 0 -14 8q0 6 8 16z" />
<glyph unicode="y" horiz-adv-x="950" d="M29 1010q-3 7 -3 12q0 12 17 12h2h191q20 0 24 -10l227 -678l232 678q4 10 24 10h191q19 0 19 -12q0 -5 -3 -12l-415 -1155q-54 -150 -125.5 -211.5t-184.5 -61.5q-159 0 -159 46v5l12 136q0 27 26 18q47 -14 93 -14q72 0 98 37l16 34q45 88 68 172z" />
<glyph unicode="z" horiz-adv-x="991" d="M76 -72v152q0 14 10 29l559 714h-518q-10 0 -17.5 8.5t-7.5 18.5v158q0 10 7.5 17t17.5 7h780q10 0 17.5 -7t7.5 -17v-152q0 -12 -14 -33l-570 -710h563q25 0 25 -27v-158q0 -10 -7 -17t-18 -7h-811q-10 0 -17 7t-7 17z" />
<glyph unicode="{" horiz-adv-x="620" d="M76 578v86q0 12 16.5 21t31.5 16.5t26.5 18.5t23.5 28.5t23 44.5q25 63 24 161v355q0 104 33 165.5t70 90.5q61 49 151 51h109q20 0 20 -23v-125q0 -25 -20 -24h-95q-23 0 -43 -46t-20 -130v-348q0 -197 -135 -299q135 -106 135 -299v-351q0 -84 20.5 -129t42.5 -45h95 q20 0 20 -24v-125q0 -25 -20 -25h-109q-143 0 -211 123q-43 78 -43 184v357q0 162 -69 231q-12 12 -27.5 19.5t-27 14.5t-16.5 11t-5 15z" />
<glyph unicode="|" horiz-adv-x="495" d="M145 -301v1831q0 27 27 26h182q27 0 27 -26v-1831q0 -27 -27 -27h-182q-27 0 -27 27z" />
<glyph unicode="}" horiz-adv-x="620" d="M14 -227q0 25 21 24h94q23 0 43.5 45t20.5 129v351q0 190 133 299q-135 106 -136 299v348q0 84 -19 130t-42 46h-94q-20 0 -21 24v125q0 23 21 23h106q41 0 79 -10.5t74 -40t58 -70.5q43 -80 43 -186v-355q0 -162 72 -233q10 -10 27 -19q14 -8 26 -14q20 -12 23 -24v-86 q0 -14 -16.5 -23.5t-32 -17t-26.5 -18.5t-23.5 -27.5t-22.5 -42.5q-25 -63 -25 -162v-357q0 -170 -102 -256q-59 -51 -152 -51h-108q-20 0 -21 25v125z" />
<glyph unicode="~" horiz-adv-x="1339" d="M160 643q4 10 51 66q94 115 248 114q86 0 356 -108q57 -20 89 -20.5t83 40.5t92 96q14 23 27 0l90 -131q4 -8 6 -13t-6 -17q-51 -92 -132 -135t-149 -43q-111 0 -264 67q-137 59 -194 59q-59 0 -142 -81q-20 -20 -37.5 -48t-33.5 0l-72 115q-16 31 -12 39z" />
<glyph unicode="&#xa1;" horiz-adv-x="618" d="M168 1333q0 61 42 103.5t103 42.5t102.5 -42.5t41.5 -103.5t-41 -103t-103 -42q-61 0 -103 42t-42 103zM182 -51l31 1079q0 29 4 35t33 6h129q25 0 30 -5t5 -36l28 -1079q2 -43 -4 -52.5t-35 -9.5h-180q-29 0 -35 9.5t-6 52.5z" />
<glyph unicode="&#xa2;" horiz-adv-x="1925" d="M416 631q0 172 41 295q43 125 116 215q158 190 412 190q133 0 242 -49l92 199l135 -58l-104 -225q117 -113 139 -293h-197q-12 57 -32 94l-375 -819q45 -12 98 -12q147 0 227 78t99 252h198q-25 -256 -168 -392q-135 -127 -356 -124q-98 0 -178 26l-103 -223l-135 70 l103 219q-123 86 -188.5 235.5t-65.5 321.5zM616 657q0 -276 136 -405l397 860q-68 35 -157 35t-156 -33q-68 -37 -117 -98q-102 -131 -103 -359z" />
<glyph unicode="&#xa3;" horiz-adv-x="1925" d="M381 139q0 106 78 176q76 66 184 66q59 0 115 -23q-8 92 -37 189h-281v151h236q-63 170 -64 271q0 190 106.5 295.5t311.5 105.5q178 -2 293 -113q111 -109 111 -288h-217q0 227 -187 227q-98 0 -154.5 -55.5t-56.5 -155.5t64 -287h563v-151h-520q38 -172 28 -289 q195 -160 271 -160q55 0 73 29q29 43 56 172l188 -61q-43 -180 -104 -254q-70 -80 -201 -80t-328 155q-78 -162 -266 -161q-115 0 -188.5 64.5t-73.5 176.5zM569 141q0 -33 20.5 -56.5t57.5 -23.5q70 0 105 117q-51 39 -94.5 39t-66 -21.5t-22.5 -54.5z" />
<glyph unicode="&#xa4;" horiz-adv-x="1716" d="M41 1200l125 123l237 -213q184 168 444.5 168t448.5 -180l256 229l123 -123l-268 -237q100 -166 100 -362.5t-116 -362.5l282 -258l-112 -131l-285 260q-184 -162 -426 -162t-422 145l-272 -248l-113 132l264 241q-127 176 -127 381q0 207 105 377zM348 614 q0 -207 144.5 -351t351.5 -144t351 144t144 351t-144 351.5t-351 144.5t-351.5 -144.5t-144.5 -351.5z" />
<glyph unicode="&#xa5;" horiz-adv-x="1925" d="M340 1364h246l264 -475h223l266 475h246l-274 -475h207v-152h-295l-95 -166h390v-151h-449v-506h-213v506h-448v151h389l-97 166h-292v152h204zM936 737l27 -49l26 49h-53z" />
<glyph unicode="&#xa7;" horiz-adv-x="708" d="M51 698q0 189 139 220q-94 131 -94 258q0 281 260 280q129 0 189.5 -64.5t60.5 -174.5h-174q0 72 -25.5 92t-64.5 20q-78 0 -78 -106q0 -78 40 -136.5t128 -145.5t156.5 -193.5t68.5 -227.5q0 -166 -125 -205q78 -113 78 -249t-69.5 -210.5t-196.5 -74.5q-268 0 -268 250 h180q0 -68 23.5 -89.5t63.5 -21.5t59.5 24.5t19.5 92.5q0 131 -111 235q-113 104 -186.5 208t-73.5 218zM219 717q12 -55 60.5 -128t81 -108t68.5 -35t48 18.5t9 45.5t-18 57.5t-53 86t-73 91t-73 35.5t-48 -18q-8 -16 -2 -45z" />
<glyph unicode="&#xa8;" horiz-adv-x="1105" d="M131 1348.5q0 60.5 43 103.5t103.5 43t103.5 -43t43 -103.5t-43 -103.5t-103.5 -43t-103.5 43t-43 103.5zM680 1348.5q0 60.5 43 103.5t103.5 43t103.5 -43t43 -103.5t-43 -103.5t-103.5 -43t-103.5 43t-43 103.5z" />
<glyph unicode="&#xa9;" horiz-adv-x="1751" d="M63 610q0 178 62 328q59 150 170 258q231 229 588 229q354 0 587 -229q111 -109 171.5 -258.5t60.5 -327.5t-62 -327q-59 -150 -170 -258q-231 -229 -587 -230q-354 0 -588 230q-111 109 -171.5 258t-60.5 327zM211 610q0 -291 189.5 -480t482.5 -189q289 0 478 189 t189 480t-189.5 480.5t-477.5 189.5q-293 0 -482.5 -189.5t-189.5 -480.5zM406 606q0 240 120 393q127 162 355 162q283 -2 389 -215q37 -74 49 -180h-207q-16 102 -77.5 151.5t-142.5 49.5t-130 -29q-49 -33 -82 -82q-61 -98 -64 -250q2 -250 146 -332q49 -28 119 -28 q217 0 235 235h213q-59 -428 -448 -428q-227 0 -357 164q-119 152 -118 389z" />
<glyph unicode="&#xaa;" horiz-adv-x="1107" d="M205 535v159h698v-159h-698zM252 993q0 96 70.5 146.5t238.5 83.5q72 10 72 65q-2 78 -108.5 78t-106.5 -98h-142q0 115 74 169t189 54q172 0 203.5 -76t31.5 -137v-317q0 -33 25.5 -26t42.5 11v-123q-39 -10 -94.5 -10t-88.5 55q-49 -76 -190 -75q-98 0 -157.5 48 t-59.5 152zM395 993q2 -74 84 -73.5t118 35t36 89.5v84q-16 -16 -60 -24q-45 -10 -82.5 -22.5t-66.5 -30t-29 -58.5z" />
<glyph unicode="&#xab;" horiz-adv-x="1925" d="M221 561v107l948 673l88 -116l-856 -611l856 -610l-88 -117zM666 561v107l950 663l86 -114l-854 -603l854 -602l-86 -114z" />
<glyph unicode="&#xac;" horiz-adv-x="1925" d="M80 135v150h1765v-613h-153v463h-1612z" />
<glyph unicode="&#xad;" horiz-adv-x="839" d="M117 541v196h606v-196h-606z" />
<glyph unicode="&#xae;" horiz-adv-x="1925" d="M137 668q0 342 242 583q244 242 584 242t581.5 -241.5t241.5 -583.5t-241.5 -583t-581.5 -241t-583 241t-243 583zM233 668q0 -301 214.5 -513t515.5 -212t514 212t213 513t-213 515t-514 214t-515.5 -214t-214.5 -515zM641 152v1048h295q182 0 281 -78 q100 -78 100 -196.5t-69.5 -194.5t-194.5 -102v-4q86 -18 172 -195l137 -278h-178l-113 251q-88 190 -188 191h-97v-442h-145zM786 717h158q217 0 217 180q0 96 -59.5 137t-183.5 41h-132v-358z" />
<glyph unicode="&#xb0;" horiz-adv-x="913" d="M199 1257q0 106 75.5 182.5t182.5 76.5q106 0 182 -76.5t76 -182.5t-76 -182t-182 -76t-182 76t-76 182zM338 1257q0 -49 35 -84.5t84 -35.5t83.5 35.5t34.5 84.5t-34.5 85t-83.5 36t-84 -35.5t-35 -85.5z" />
<glyph unicode="&#xb1;" horiz-adv-x="1161" d="M68 743v136q0 27 26 26h389v398q0 27 27 26h139q27 0 27 -26v-398h393q27 1 27 -26v-136q0 -27 -27 -26h-393v-400q0 -27 -27 -26h-139q-27 0 -27 26v400h-389q-27 0 -26 26zM78 25v135q0 27 28 26h949q28 1 28 -26v-135q0 -27 -28 -27h-949q-29 0 -28 27z" />
<glyph unicode="&#xb2;" horiz-adv-x="839" d="M250 1012q4 96 49 147q45 53 94 84t71.5 55.5t22.5 59.5q0 51 -57 51q-68 0 -68 -100h-100q0 96 45 145t115 49t116 -36.5t46 -108.5q0 -86 -59.5 -129t-86.5 -60q-41 -25 -57 -59h207v-98h-338z" />
<glyph unicode="&#xb3;" horiz-adv-x="876" d="M266 1178h99q0 -49 17 -65.5t54 -16.5q70 0 70 63q0 59 -66 60h-41v84h41q23 0 37 16t14.5 40.5t-17 37t-40.5 12.5q-61 0 -61 -74h-99q0 86 45 127q45 39 111 39t113 -31.5t47 -99t-43 -98.5q59 -23 59 -107q0 -82 -51 -120.5t-104.5 -38.5t-84 8t-65.5 37.5t-35 126.5z " />
<glyph unicode="&#xb4;" horiz-adv-x="663" d="M94 1053l199 440h276l-350 -440h-125z" />
<glyph unicode="&#xb6;" horiz-adv-x="1239" d="M147 1036q0 190 123 310t344 120h478v-1693h-183v1534h-147v-1534h-182v835q-205 16 -319 133t-114 295z" />
<glyph unicode="&#xb7;" horiz-adv-x="593" d="M133 681q0 69 44 114t112 45q67 0 114.5 -45t47.5 -114t-46.5 -113t-113.5 -44q-68 0 -113 44t-45 113z" />
<glyph unicode="&#xb8;" horiz-adv-x="649" d="M106 -330l58 94q76 -53 133 -53q35 0 63.5 19.5t28.5 52.5t-19.5 51.5t-58.5 18.5t-71 -41l-64 36l98 220h136l-41 -107h20q72 0 113 -48t41 -124t-62.5 -136.5t-173.5 -60.5q-106 0 -201 78z" />
<glyph unicode="&#xb9;" horiz-adv-x="829" d="M309 1313v88q53 4 70.5 21.5t26.5 72.5h88v-479h-101v297h-84z" />
<glyph unicode="&#xba;" horiz-adv-x="1107" d="M205 535v159h698v-159h-698zM248 1139q0 172 85 260t218 88q137 0 220 -90t83 -258q0 -254 -119 -301t-184 -47q-133 0 -218 88t-85 260zM393 1139q0 -111 42 -165t116 -54t116 54t42 165t-42 165t-116 54t-116 -54.5t-42 -164.5z" />
<glyph unicode="&#xbb;" horiz-adv-x="1925" d="M221 12l854 602l-854 603l86 114l950 -663v-107l-950 -663zM666 4l856 610l-856 611l88 116l948 -673v-107l-948 -674z" />
<glyph unicode="&#xbc;" horiz-adv-x="1509" d="M156 88l1101 1147l97 -82l-1098 -1157zM209 1167v136q82 4 107.5 29.5t37.5 115.5h138v-737h-154v456h-129zM788 -43v121l328 450h123v-424h111v-147h-111v-168h-147v168h-304zM963 104h129v177z" />
<glyph unicode="&#xbd;" horiz-adv-x="1443" d="M121 90l1102 1147l98 -82l-1098 -1157zM182 1167v136q82 4 107.5 29.5t38.5 115.5h139v-737h-154v456h-131zM801 -219q6 190 99 259t146.5 101.5t88 66.5t34.5 87q0 80 -90 80q-104 0 -104 -156h-156q0 147 69.5 224t178.5 77t179.5 -56t70.5 -169q0 -133 -92 -195 q-94 -63 -135 -88q-68 -43 -86 -82h319v-149h-522z" />
<glyph unicode="&#xbe;" horiz-adv-x="1527" d="M143 969h150q0 -76 26.5 -102.5t83.5 -26.5q109 0 109 94t-100 96h-64v129h62q35 0 57 19.5t22 56.5t-25.5 56.5t-62.5 19.5q-94 0 -94 -121h-151q0 129 67.5 195.5t175.5 66.5q166 0 204 -78t38 -133q0 -90 -68 -135q41 -16 67 -59t26 -104.5t-21.5 -108t-75 -89.5 t-166.5 -43q-260 0 -260 267zM184 88l1102 1147l98 -82l-1097 -1157zM791 -47v121l327 450h123v-424h113v-147h-111v-168h-147v168h-305zM965 100h129l2 176z" />
<glyph unicode="&#xbf;" horiz-adv-x="1105" d="M168 272q0 166 65.5 256t114.5 160q49 74 82 119q70 98 70 246q0 37 37 37h163q16 0 24.5 -6.5t8.5 -47.5t-12 -109.5t-35 -115.5q-57 -121 -125 -195q-152 -170 -151 -313q0 -98 59 -148.5t141 -50.5q145 0 279 58q45 20 45 -19v-168q0 -20 -23 -30 q-168 -57 -286.5 -57.5t-197.5 28.5t-169 109.5t-90 246.5zM489 1347.5q0 57.5 40 95.5t97.5 38t94.5 -39q39 -37 39 -94.5t-39 -98.5q-37 -39 -94.5 -39t-97.5 40t-40 97.5z" />
<glyph unicode="&#xc0;" horiz-adv-x="1376" d="M45 -72l516 1307q6 16 9 19t24 3h190q18 0 22.5 -3t10.5 -19l516 -1307q10 -29 -24 -28h-189q-14 0 -20 3t-13 17l-147 369h-504l-147 -369q-4 -14 -10.5 -17t-20.5 -3h-188q-37 0 -25 28zM381 1606q0 14 22 14h197q18 0 27.5 -7t23.5 -24l137 -194q8 -10 8.5 -22.5 t-18.5 -12.5h-172q-16 0 -24.5 7t-22.5 24l-170 198q-8 8 -8 17zM520 504h334l-166 444z" />
<glyph unicode="&#xc1;" horiz-adv-x="1376" d="M45 -72l516 1307q6 16 9 19t24 3h190q18 0 22.5 -3t10.5 -19l516 -1307q10 -29 -24 -28h-189q-14 0 -20 3t-13 17l-147 369h-504l-147 -369q-4 -14 -10.5 -17t-20.5 -3h-188q-37 0 -25 28zM520 504h334l-166 444zM584 1372q0 12 8 23l137 194q14 16 23.5 23.5t27.5 7.5 h197q23 0 22 -14q0 -8 -8 -17l-170 -198q-14 -16 -22 -23.5t-25 -7.5h-172q-18 0 -18 12z" />
<glyph unicode="&#xc2;" horiz-adv-x="1376" d="M45 -72l516 1307q6 16 9 19t24 3h190q18 0 22.5 -3t10.5 -19l516 -1307q10 -29 -24 -28h-189q-14 0 -20 3t-13 17l-147 369h-504l-147 -369q-4 -14 -10.5 -17t-20.5 -3h-188q-37 0 -25 28zM367 1372q0 12 8 23l135 192q14 16 22.5 23.5t26.5 7.5h256q18 0 27.5 -7 t23.5 -24l133 -192q8 -10 8.5 -22.5t-18.5 -12.5h-147q-16 0 -24.5 7t-22.5 24l-107 116l-108 -116q-14 -16 -22.5 -23.5t-25.5 -7.5h-147q-18 0 -18 12zM520 504h334l-166 444z" />
<glyph unicode="&#xc6;" horiz-adv-x="1771" d="M102 -68q0 12 2 15l338 1157q47 154 209 153h965q23 0 27 -7t4 -25v-152q0 -20 -6.5 -27.5t-24.5 -7.5h-555v-336h528q31 0 31 -32v-154q0 -35 -31 -35h-528v-364h579q29 0 29 -35v-154q0 -33 -29 -32h-766q-39 0 -45 8t-6 49v309h-377l-100 -332q-10 -31 -37 -30h-172 q-35 0 -35 32zM500 477h323v561h-151q-29 0 -41 -34z" />
<glyph unicode="&#xc7;" horiz-adv-x="1165" d="M82 571q0 315 185.5 509t490.5 194q193 0 297 -37q23 -4 25.5 -12t0.5 -27l-4 -174q0 -29 -8 -29t-31 9q-141 41 -280 40q-223 0 -325.5 -121.5t-102.5 -347t110.5 -320.5t317.5 -95q180 0 280 37q37 16 37 -11l2 -157q2 -20 -2 -29q-2 -8 -26 -16q-125 -37 -281 -37 l-23 -53q47 18 96.5 -3.5t49.5 -107.5t-72 -137q-70 -51 -147 -52q-131 2 -197 62l29 76q178 -41 188 24q6 88 -147 19l-27 16l55 170q-47 8 -96 25q-186 53 -290.5 201.5t-104.5 383.5z" />
<glyph unicode="&#xc8;" horiz-adv-x="1079" d="M123 -45v1247q0 41 7 48t46 7h727q23 0 27 -7t4 -25v-152q0 -20 -6 -27.5t-25 -7.5h-555v-336h529q31 0 30 -32v-154q0 -35 -30 -35h-529v-364h580q29 0 28 -35v-154q0 -33 -28 -32h-748q-41 0 -49 7t-8 52zM274 1606q0 14 23 14h197q18 0 27 -7t24 -24l137 -194 q8 -8 8 -21.5t-18 -13.5h-172q-16 0 -24.5 7t-22.5 24l-170 198q-8 8 -9 17z" />
<glyph unicode="&#xc9;" horiz-adv-x="1079" d="M123 -45q0 -45 8 -52t49 -7h748q29 0 28 32v154q0 35 -28 35h-580v364h529q31 0 30 35v154q0 33 -30 32h-529v336h555q18 0 24.5 7.5t6.5 27.5v152q0 18 -4 25t-27 7h-727q-39 0 -46 -7t-7 -48v-1247zM387.5 1372q-0.5 12 7.5 23l137 194q14 16 23.5 23.5t28.5 7.5h196 q23 0 23 -14q0 -8 -8 -17l-170 -198q-14 -16 -22.5 -23.5t-24.5 -7.5h-172q-18 0 -18.5 12z" />
<glyph unicode="&#xca;" horiz-adv-x="1079" d="M123 -45v1247q0 41 7 48t46 7h727q23 0 27 -7t4 -25v-152q0 -20 -6 -27.5t-25 -7.5h-555v-336h529q31 0 30 -32v-154q0 -35 -30 -35h-529v-364h580q29 0 28 -35v-154q0 -33 -28 -32h-748q-41 0 -49 7t-8 52zM217.5 1373q-0.5 13 7.5 22l135 192q14 16 22.5 23.5t27.5 7.5 h256q18 0 27 -7t24 -24l133 -192q8 -8 8 -21.5t-18 -13.5h-148q-16 0 -24.5 7t-22.5 24l-106 116l-109 -116q-14 -16 -22.5 -23.5t-24.5 -7.5h-147q-18 0 -18.5 13z" />
<glyph unicode="&#xcb;" horiz-adv-x="1079" d="M123 -45v1247q0 41 7 48t46 7h727q23 0 27 -7t4 -25v-152q0 -20 -6 -27.5t-25 -7.5h-555v-336h529q31 0 30 -32v-154q0 -35 -30 -35h-529v-364h580q29 0 28 -35v-154q0 -33 -28 -32h-748q-41 0 -49 7t-8 52zM219 1489q0 53 35 90t88 37t90 -37t37 -90t-37 -88t-90 -35 t-88 35t-35 88zM608 1489q0 53 35 90t88 37t90 -37t37 -90t-37 -88t-90 -35t-88 35t-35 88z" />
<glyph unicode="&#xcd;" horiz-adv-x="843" d="M293 -76v1307q0 27 26 26h187q27 0 26 -26v-1307q0 -27 -26 -26h-187q-27 0 -26 26zM305.5 1372q-0.5 12 7.5 23l138 194q14 16 23 23.5t28 7.5h196q23 0 23 -14q0 -8 -8 -17l-170 -198q-14 -16 -22.5 -23.5t-24.5 -7.5h-172q-18 0 -18.5 12z" />
<glyph unicode="&#xce;" horiz-adv-x="845" d="M102.5 1372q-0.5 12 8.5 23l135 192q14 16 22 23.5t27 7.5h256q18 0 27.5 -7t23.5 -24l133 -192q8 -10 8 -22.5t-18 -12.5h-147q-16 0 -24.5 7t-23.5 24l-106 116l-109 -116q-14 -16 -22 -23.5t-25 -7.5h-147q-18 0 -18.5 12zM303 -76v1307q0 27 27 26h186q27 0 27 -26 v-1307q0 -27 -27 -26h-186q-27 0 -27 26z" />
<glyph unicode="&#xcf;" horiz-adv-x="843" d="M102 1489q0 53 35 90t88 37t90 -37t37 -90t-36.5 -88t-90.5 -35q-53 0 -88 35t-35 88zM293 -76v1307q0 27 26 26h187q27 0 26 -26v-1307q0 -27 -26 -26h-187q-27 0 -26 26zM492 1489q0 53 34.5 90t87.5 37t90 -37t37 -90t-36.5 -88t-90.5 -35q-53 0 -87.5 35t-34.5 88z " />
<glyph unicode="&#xd0;" horiz-adv-x="1626" d="M121 637v160h237v587h490q334 0 495.5 -176t161.5 -561t-161.5 -559t-495.5 -174h-490v723h-237zM598 135h223q256 0 351.5 114.5t95.5 397.5q0 139 -20.5 237.5t-95.5 188.5t-331 90h-223v-366h182v-160h-182v-502z" />
<glyph unicode="&#xd1;" horiz-adv-x="1488" d="M174 -70v1315q0 25 8 32t31 7h188q16 0 24.5 -5t20.5 -28l644 -942v942q0 20 6 26.5t26 6.5h170q20 0 25.5 -6t5.5 -27v-1314q0 -25 -7 -32t-30 -7h-188q-16 0 -24.5 6t-20.5 26l-643 944v-944q0 -20 -6.5 -26t-26.5 -6h-170q-16 0 -24.5 6t-8.5 26zM465 1469.5 q0 5.5 4 11.5q41 82 86 106q47 23 84 27q92 8 154 -47q29 -25 47 -37t47 -12q27 4 45 21t35 69q8 14 20 4l96 -90q12 -14 7 -31q-51 -156 -175 -166q-80 -8 -149 51q-23 18 -48.5 36t-50 13.5t-46 -17.5t-46.5 -60q-4 -16 -18 -2l-88 110q-4 8 -4 13.5z" />
<glyph unicode="&#xd3;" horiz-adv-x="1433" d="M102 586q0 483 221.5 592.5t393.5 109.5q322 0 468 -198.5t146 -503.5q0 -485 -221 -594q-217 -109 -393 -109t-294 58.5t-219.5 198t-101.5 446.5zM334 586q0 -328 134 -409t249 -81q209 0 296 142.5t87 347.5q0 328 -134.5 408.5t-248.5 80.5q-209 0 -296 -142 t-87 -347zM559.5 1372q-0.5 12 7.5 23l138 194q14 16 23 23.5t28 7.5h196q23 0 23 -14q0 -8 -8 -17l-170 -198q-14 -16 -22.5 -23.5t-24.5 -7.5h-172q-18 0 -18.5 12z" />
<glyph unicode="&#xd4;" horiz-adv-x="1433" d="M102 586q0 483 221.5 592.5t393.5 109.5q322 0 468 -198.5t146 -503.5q0 -485 -221 -594q-217 -109 -393 -109t-294 58.5t-219.5 198t-101.5 446.5zM334 586q0 -328 134 -409t249 -81q209 0 296 142.5t87 347.5q0 328 -134.5 408.5t-248.5 80.5q-209 0 -296 -142 t-87 -347zM393.5 1372q-0.5 12 7.5 23l136 192q14 16 22 23.5t27 7.5h256q18 0 27.5 -7t23.5 -24l133 -192q8 -10 8 -22.5t-18 -12.5h-148q-16 0 -24 7t-23 24l-106 116l-109 -116q-14 -16 -22.5 -23.5t-24.5 -7.5h-147q-18 0 -18.5 12z" />
<glyph unicode="&#xd7;" horiz-adv-x="1212" d="M78 229.5q0 14.5 10 24.5l385 385l-371 367q-10 10 -10 22t10 23l88 90q25 25 48 0l370 -365l375 371q10 10 23.5 10t23.5 -10l82 -88q10 -10 10 -24.5t-10 -24.5l-371 -373l381 -383q11 -10 11 -22.5t-11 -22.5l-86 -90q-10 -10 -23.5 -10t-23.5 10l-383 383l-387 -385 q-29 -25 -45 0l-86 88q-10 10 -10 24.5z" />
<glyph unicode="&#xd8;" horiz-adv-x="1597" d="M139 649q0 356 185.5 561t474.5 205q180 0 323 -84l138 236l131 -74l-148 -254q215 -211 215 -590q0 -356 -185.5 -561t-473.5 -205q-160 0 -299 70l-166 -289l-131 76l172 297q-236 213 -236 612zM381 649q0 -254 115 -403l514 891q-92 57 -201 57t-185.5 -38 t-159.5 -145.5t-83 -361.5zM612 147q80 -43 182.5 -43t179.5 38t160 145.5t82.5 353.5t-96.5 385z" />
<glyph unicode="&#xd9;" horiz-adv-x="1333" d="M102 449v778q0 10 7.5 20t17.5 10h182q25 0 25 -26v-782q0 -160 84 -262.5t250 -102.5t248.5 99.5t82.5 265.5v782q0 27 25 26h182q10 0 17.5 -10t7.5 -20v-778q0 -311 -195 -467q-150 -119 -366.5 -119t-372.5 119q-195 145 -195 467zM387 1606q0 14 23 14h196 q18 0 27.5 -7t23.5 -24l138 -194q8 -10 8 -22.5t-19 -12.5h-172q-16 0 -24 7t-23 24l-170 198q-8 8 -8 17z" />
<glyph unicode="&#xda;" horiz-adv-x="1333" d="M102 449v778q0 10 7.5 20t17.5 10h182q25 0 25 -26v-782q0 -160 84 -262.5t250 -102.5t248.5 99.5t82.5 265.5v782q0 27 25 26h182q10 0 17.5 -10t7.5 -20v-778q0 -311 -195 -467q-150 -119 -366.5 -119t-372.5 119q-195 145 -195 467zM510 1372q0 12 8 23l137 194 q14 16 23.5 23.5t28.5 7.5h196q23 0 23 -14q0 -8 -8 -17l-170 -198q-14 -16 -22.5 -23.5t-25.5 -7.5h-172q-18 0 -18 12z" />
<glyph unicode="&#xdb;" horiz-adv-x="1333" d="M102 449v778q0 10 7.5 20t17.5 10h182q25 0 25 -26v-782q0 -160 84 -262.5t250 -102.5t248.5 99.5t82.5 265.5v782q0 27 25 26h182q10 0 17.5 -10t7.5 -20v-778q0 -311 -195 -467q-150 -119 -366.5 -119t-372.5 119q-195 145 -195 467zM346.5 1372q-0.5 12 7.5 23 l135 192q14 16 22.5 23.5t27.5 7.5h256q18 0 27 -7t24 -24l133 -192q8 -10 8 -22.5t-18 -12.5h-148q-16 0 -24.5 7t-22.5 24l-106 116l-109 -116q-14 -16 -22.5 -23.5t-24.5 -7.5h-147q-18 0 -18.5 12z" />
<glyph unicode="&#xdc;" horiz-adv-x="1333" d="M102 449v778q0 10 7.5 20t17.5 10h182q25 0 25 -26v-782q0 -160 84 -262.5t250 -102.5t248.5 99.5t82.5 265.5v782q0 27 25 26h182q10 0 17.5 -10t7.5 -20v-778q0 -311 -195 -467q-150 -119 -366.5 -119t-372.5 119q-195 145 -195 467zM346 1489q0 53 35 90t88 37t90 -37 t37 -90t-37 -88t-90 -35t-88 35t-35 88zM735 1489q0 53 35 90t88 37t90 -37t37 -90t-37 -88t-90 -35t-88 35t-35 88z" />
<glyph unicode="&#xde;" horiz-adv-x="1085" d="M123 -86v1470h239v-208q238 -4 419.5 -137.5t181.5 -385.5t-180.5 -385t-417.5 -137v-217h-242zM362 332q141 4 256 84t115 237h2q0 158 -115.5 238t-257.5 84v-643z" />
<glyph unicode="&#xdf;" horiz-adv-x="1345" d="M184 -82v1196q0 158 89 243t231 85h186q184 0 305 -102.5t121 -288.5q0 -244 -190 -346q127 -39 204.5 -138.5t77.5 -259.5q0 -217 -86 -336q-86 -117 -270 -116.5t-274.5 81t-98.5 254.5q0 33 31 33h166q35 0 35 -30q6 -72 40.5 -95.5t94.5 -23.5q133 0 133 219 q0 174 -101.5 235.5t-287.5 61.5h-6q-29 0 -29 28v160q0 29 29 29h6q162 0 229.5 63.5t67.5 155.5t-52.5 145.5t-183.5 53.5h-114q-49 0 -86 -27t-37 -94v-1186q0 -20 -25 -20h-180q-25 0 -25 20z" />
<glyph unicode="&#xe0;" horiz-adv-x="1089" d="M102 223q0 213 155 315.5t497 102.5q0 147 -62 182q-61 35 -135 35q-143 0 -289 -90q-33 -20 -44 -18t-11 22v156q0 8 -1 17t3 18q2 8 51 30q137 70 328 70q188 0 285.5 -99.5t97.5 -316.5v-485q0 -166 8 -230q2 -33 -22 -32h-166q-14 0 -18.5 3t-4.5 15v92 q-51 -72 -130 -107.5t-161 -35.5t-152.5 22.5t-149.5 93t-79 240.5zM309 1401q0 14 23 14h196q18 0 27.5 -7t24.5 -24l137 -194q8 -10 8 -22.5t-18 -12.5h-172q-16 0 -24.5 7t-23.5 24l-170 198q-8 8 -8 17zM336 225q0 -78 45 -116.5t121 -38.5q117 0 187.5 84t70.5 270v22 q-227 0 -325.5 -55t-98.5 -166z" />
<glyph unicode="&#xe1;" horiz-adv-x="1089" d="M102 223q0 213 155 315.5t497 102.5q0 147 -62 182q-61 35 -135 35q-143 0 -289 -90q-33 -20 -44 -18t-11 22v156q0 8 -1 17t3 18q2 8 51 30q137 70 328 70q188 0 285.5 -99.5t97.5 -316.5v-485q0 -166 8 -230q2 -33 -22 -32h-166q-14 0 -18.5 3t-4.5 15v92 q-51 -72 -130 -107.5t-161 -35.5t-152.5 22.5t-149.5 93t-79 240.5zM336 225q0 -78 45 -116.5t121 -38.5q117 0 187.5 84t70.5 270v22q-227 0 -325.5 -55t-98.5 -166zM416 1167.5q0 12.5 8 22.5l137 194q14 16 23.5 23.5t27.5 7.5h197q23 0 22 -14q0 -8 -8 -17l-170 -198 q-14 -16 -22 -23.5t-25 -7.5h-172q-18 0 -18 12.5z" />
<glyph unicode="&#xe2;" horiz-adv-x="1089" d="M102 223q0 213 155 315.5t497 102.5q0 147 -62 182q-61 35 -135 35q-143 0 -289 -90q-33 -20 -44 -18t-11 22v156q0 8 -1 17t3 18q2 8 51 30q137 70 328 70q188 0 285.5 -99.5t97.5 -316.5v-485q0 -166 8 -230q2 -33 -22 -32h-166q-14 0 -18.5 3t-4.5 15v92 q-51 -72 -130 -107.5t-161 -35.5t-152.5 22.5t-149.5 93t-79 240.5zM244 1167.5q0 12.5 8 22.5l135 192q14 16 22.5 23.5t26.5 7.5h256q18 0 27.5 -7t23.5 -24l134 -192q8 -10 8 -22.5t-19 -12.5h-147q-16 0 -24.5 7t-22.5 24l-107 117l-108 -117q-14 -16 -22.5 -23.5 t-24.5 -7.5h-148q-18 0 -18 12.5zM336 225q0 -78 45 -116.5t121 -38.5q117 0 187.5 84t70.5 270v22q-227 0 -325.5 -55t-98.5 -166z" />
<glyph unicode="&#xe4;" horiz-adv-x="1089" d="M102 223q0 213 155 315.5t497 102.5q0 147 -62 182q-61 35 -135 35q-143 0 -289 -90q-33 -20 -44 -18t-11 22v156q0 8 -1 17t3 18q2 8 51 30q137 70 328 70q188 0 285.5 -99.5t97.5 -316.5v-485q0 -166 8 -230q2 -33 -22 -32h-166q-14 0 -18.5 3t-4.5 15v92 q-51 -72 -130 -107.5t-161 -35.5t-152.5 22.5t-149.5 93t-79 240.5zM246 1264q0 53 34.5 90t88.5 37q53 0 90 -37t37 -90t-37 -88t-90 -35t-88 35t-35 88zM336 225q0 -78 45 -116.5t121 -38.5q117 0 187.5 84t70.5 270v22q-227 0 -325.5 -55t-98.5 -166zM635 1264 q0 53 35 90t88 37t90 -37t37 -90t-37 -88t-90 -35t-88 35t-35 88z" />
<glyph unicode="&#xe6;" horiz-adv-x="1839" d="M123 223q0 213 154.5 315.5t496.5 102.5q0 147 -61 182t-135 35q-143 0 -289 -90q-33 -20 -44.5 -18t-11.5 22v156q0 8 -1 17t4 18q2 8 51 30q137 70 305 70q246 0 340 -143q123 141 325 141q233 0 346 -163t113 -425l-2 -59q0 -16 -9 -24.5t-19 -8.5h-674 q10 -137 86 -224t207 -87q182 0 311 77q14 8 18 -2t4 -26v-142q0 -33 -30 -49q-115 -61 -314 -61q-266 0 -397 168q-68 -76 -168 -121q-102 -47 -204.5 -47t-173 22.5t-149.5 93t-79 240.5zM356 225q0 -78 45 -116.5t121 -38.5q117 0 187.5 84t70.5 270v22 q-227 0 -325.5 -55t-98.5 -166zM1016 584h469q0 98 -58.5 189t-160.5 91q-57 0 -99.5 -24.5t-87.5 -81t-63 -174.5z" />
<glyph unicode="&#xe7;" horiz-adv-x="1044" d="M102 487q0 258 156 414t414 156q150 0 254 -35q18 -4 14 -33l-18 -141q-4 -29 -35 -23q-78 29 -231.5 29t-239.5 -96t-86 -266t81 -244t228 -90.5t258 18.5q20 8 25.5 2t7.5 -18l10 -142q2 -16 -4 -30.5t-141 -28.5q-23 -2 -45.5 -3t-44.5 -3l-27 -59q47 18 96 -3.5 t49 -107.5t-71.5 -137.5t-149.5 -51.5q-131 2 -194 62l28 76q178 -41 189 24q6 88 -148 19l-26 16l59 180q-170 33 -272 135q-135 131 -136 381z" />
<glyph unicode="&#xe8;" horiz-adv-x="1140" d="M102 467q0 242 123 418t355 176q233 0 345.5 -163t112.5 -425l-2 -59q0 -16 -9 -24.5t-19 -8.5h-674q10 -137 86 -224t207 -87q182 0 311 77q14 8 18.5 -2t4.5 -26v-142q0 -33 -31 -49q-115 -61 -314 -61q-514 0 -514 600zM330 1401q0 14 22 14h197q18 0 27.5 -7 t23.5 -24l137 -194q8 -10 8 -22.5t-18 -12.5h-172q-16 0 -24.5 7t-22.5 24l-170 198q-8 8 -8 17zM338 584h469q0 98 -57.5 189t-159.5 91q-57 0 -100.5 -24.5t-88.5 -81t-63 -174.5z" />
<glyph unicode="&#xe9;" horiz-adv-x="1140" d="M102 467q0 -600 514 -600q199 0 314 61q31 16 31 49v142q0 16 -4.5 26.5t-18.5 1.5q-129 -78 -311 -77q-131 0 -207 87t-86 224h674q10 0 19 8t9 25l2 59q0 408 -166.5 498t-289.5 90t-214.5 -51.5t-178.5 -176t-87 -366.5zM338 584q31 186 112.5 233t139 47t97.5 -28.5 t80 -92t40 -159.5h-469zM459 1167.5q0 12.5 8 22.5l137 194q14 16 23.5 23.5t27.5 7.5h197q23 0 22 -14q0 -8 -8 -17l-170 -198q-14 -16 -22 -23.5t-25 -7.5h-172q-18 0 -18 12.5z" />
<glyph unicode="&#xea;" horiz-adv-x="1140" d="M102 467q0 242 123 418t355 176q233 0 345.5 -163t112.5 -425l-2 -59q0 -16 -9 -24.5t-19 -8.5h-674q10 -137 86 -224t207 -87q182 0 311 77q14 8 18.5 -2t4.5 -26v-142q0 -33 -31 -49q-115 -61 -314 -61q-514 0 -514 600zM258 1167.5q0 12.5 8 22.5l135 192 q14 16 22.5 23.5t27.5 7.5h256q18 0 27 -7t24 -24l133 -192q8 -10 8 -22.5t-18 -12.5h-148q-16 0 -24.5 7t-22.5 24l-106 117l-109 -117q-14 -16 -22.5 -23.5t-24.5 -7.5h-148q-18 0 -18 12.5zM338 584h469q0 98 -57.5 189t-159.5 91q-57 0 -100.5 -24.5t-88.5 -81 t-63 -174.5z" />
<glyph unicode="&#xeb;" horiz-adv-x="1140" d="M102 467q0 242 123 418t355 176q233 0 345.5 -163t112.5 -425l-2 -59q0 -16 -9 -24.5t-19 -8.5h-674q10 -137 86 -224t207 -87q182 0 311 77q14 8 18.5 -2t4.5 -26v-142q0 -33 -31 -49q-115 -61 -314 -61q-514 0 -514 600zM260 1264q0 53 35 90t88 37t90 -37t37 -90 t-37 -88t-90 -35t-88 35t-35 88zM338 584h469q0 98 -57.5 189t-159.5 91q-57 0 -100.5 -24.5t-88.5 -81t-63 -174.5zM649 1264q0 53 35 90t88 37t90 -37t37 -90t-37 -88t-90 -35t-88 35t-35 88z" />
<glyph unicode="&#xed;" horiz-adv-x="856" d="M307 -80v1079q0 25 25 25h172q25 0 24 -25v-1079q0 -25 -24 -24h-172q-25 0 -25 24zM317.5 1167.5q-0.5 12.5 8.5 22.5l137 194q14 16 23.5 23.5t27.5 7.5h197q23 0 22 -14q0 -8 -8 -17l-170 -198q-14 -16 -22.5 -23.5t-24.5 -7.5h-172q-18 0 -18.5 12.5z" />
<glyph unicode="&#xee;" horiz-adv-x="845" d="M102.5 1167.5q-0.5 12.5 8.5 22.5l135 192q14 16 22 23.5t27 7.5h256q18 0 27.5 -7t23.5 -24l133 -192q8 -10 8 -22.5t-18 -12.5h-147q-16 0 -24.5 7t-23.5 24l-106 117l-109 -117q-14 -16 -22 -23.5t-25 -7.5h-147q-18 0 -18.5 12.5zM313 -80v1079q0 25 25 25h172 q25 0 25 -25v-1079q0 -25 -25 -24h-172q-25 0 -25 24z" />
<glyph unicode="&#xef;" horiz-adv-x="843" d="M102 1264q0 53 35 90t88 37t90 -37t37 -90t-36.5 -88t-90.5 -35q-53 0 -88 35t-35 88zM303 -80v1079q0 25 25 25h172q25 0 24 -25v-1079q0 -25 -24 -24h-172q-25 0 -25 24zM492 1264q0 53 34.5 90t87.5 37t90 -37t37 -90t-36.5 -88t-90.5 -35q-53 0 -87.5 35t-34.5 88z " />
<glyph unicode="&#xf0;" horiz-adv-x="1212" d="M119 436q0 266 139 409.5t348 143.5q88 0 166 -26q-20 92 -80 178l-98 -94l-90 90l51 51q10 10 19.5 18t17.5 17l16 16q-70 68 -139 115l55 90q104 -47 185 -105l57 54q25 23 55 55l92 -90l-102 -101q227 -208 255 -451t28 -372t-39 -232.5t-140.5 -211t-308.5 -107.5 q-209 0 -348 143.5t-139 409.5zM350 436q0 -178 70 -260q68 -82 186.5 -82t187 82t68.5 260t-67 260q-70 82 -189 82t-187.5 -82t-68.5 -260z" />
<glyph unicode="&#xf1;" d="M176 1006q-2 27 29 26h162q23 0 18 -16l-2 -74q123 119 305 119t284.5 -115t102.5 -336v-684q0 -27 -24 -26h-170q-10 0 -17.5 9t-7.5 19v652q0 147 -46 212.5t-144 65.5q-264 0 -265 -291v-641q0 -27 -24 -26h-170q-10 0 -17.5 9t-7.5 19v815q0 201 -6 263zM311 1264.5 q0 5.5 4 11.5q41 82 86 106q45 23 82 27q92 8 156 -47q29 -25 47.5 -37t46.5 -12q27 4 45.5 21.5t34.5 68.5q8 14 21 4l96 -90q12 -14 6 -31q-51 -156 -174 -166q-80 -8 -150 51q-23 18 -47 37q-29 16 -53.5 12.5t-45 -17t-44.5 -60.5q-4 -16 -19 -2l-88 110q-4 8 -4 13.5z " />
<glyph unicode="&#xf3;" horiz-adv-x="1273" d="M102 465q0 258 140.5 427t394.5 169t394 -169t140 -427q0 -248 -127 -410q-152 -188 -407 -188q-254 0 -394.5 170t-140.5 428zM330 465q0 -156 77.5 -276.5t229.5 -120.5t229.5 120.5t77.5 276.5t-78.5 275.5t-228.5 119.5q-152 0 -229.5 -118.5t-77.5 -276.5z M528.5 1167.5q-0.5 12.5 8.5 22.5l137 194q14 16 23.5 23.5t27.5 7.5h197q23 0 22 -14q0 -8 -8 -17l-170 -198q-14 -16 -22.5 -23.5t-24.5 -7.5h-172q-18 0 -18.5 12.5z" />
<glyph unicode="&#xf4;" horiz-adv-x="1273" d="M102 465q0 258 140.5 427t394.5 169t394 -169t140 -427q0 -248 -127 -410q-152 -188 -407 -188q-254 0 -394.5 170t-140.5 428zM315.5 1167.5q-0.5 12.5 8.5 22.5l135 192q14 16 22 23.5t27 7.5h256q18 0 27.5 -7t23.5 -24l133 -192q8 -10 8 -22.5t-18 -12.5h-147 q-16 0 -24.5 7t-23.5 24l-106 117l-109 -117q-14 -16 -22 -23.5t-25 -7.5h-147q-18 0 -18.5 12.5zM330 465q0 -156 77.5 -276.5t229.5 -120.5t229.5 120.5t77.5 276.5t-78.5 275.5t-228.5 119.5q-152 0 -229.5 -118.5t-77.5 -276.5z" />
<glyph unicode="&#xf6;" horiz-adv-x="1273" d="M102 465q0 258 140.5 427t394.5 169t394 -169t140 -427q0 -248 -127 -410q-152 -188 -407 -188q-254 0 -394.5 170t-140.5 428zM315 1264q0 53 35 90t88 37t90 -37t37 -90t-36.5 -88t-90.5 -35q-53 0 -88 35t-35 88zM330 465q0 -156 77.5 -276.5t229.5 -120.5 t229.5 120.5t77.5 276.5t-78.5 275.5t-228.5 119.5q-152 0 -229.5 -118.5t-77.5 -276.5zM705 1264q0 53 34.5 90t87.5 37t90 -37t37 -90t-36.5 -88t-90.5 -35q-53 0 -87.5 35t-34.5 88z" />
<glyph unicode="&#xf7;" horiz-adv-x="1331" d="M78 573v132q0 27 28 26h1119q28 1 28 -26v-132q0 -27 -28 -26h-1119q-29 0 -28 26zM514 217.5q0 65.5 41 107.5t107 42t108.5 -42t42.5 -107.5t-43 -106.5q-41 -41 -106.5 -41t-106.5 41q-43 41 -43 106.5zM514 1060.5q0 65.5 41 106.5t107 41t108 -41q43 -41 43 -106.5 t-43 -106.5q-41 -43 -106.5 -43t-107.5 42t-42 107.5z" />
<glyph unicode="&#xf8;" horiz-adv-x="1253" d="M139 446q0 266 133.5 415t354.5 149q92 0 174 -29l88 188l123 -55l-92 -196q195 -147 194 -472q0 -266 -133 -414.5t-354 -148.5q-92 0 -174 29l-99 -209l-121 57l101 215q-195 143 -195 471zM370.5 451q0.5 -172 63.5 -261l277 596q-37 12 -84 13q-119 0 -189 -86 q-68 -90 -67.5 -262zM543 106q37 -12 84 -12q121 0 188.5 87t67.5 259t-62 262z" />
<glyph unicode="&#xf9;" horiz-adv-x="1142" d="M123 317v687q0 10 7 19t17 9h168q10 0 18.5 -10t8.5 -21v-651q0 -154 50 -217t154.5 -63t177.5 84t73 249v601q0 10 7 19t17 9h170q10 0 17.5 -11t7.5 -22v-835l4 -238q0 -27 -23 -26h-166q-25 0 -22 20v82q-111 -135 -299 -135q-190 0 -288.5 116.5t-98.5 333.5z M309 1401q0 14 23 14h196q18 0 27.5 -7t24.5 -24l137 -194q8 -10 8 -22.5t-18 -12.5h-172q-16 0 -24.5 7t-23.5 24l-170 198q-8 8 -8 17z" />
<glyph unicode="&#xfa;" horiz-adv-x="1142" d="M123 317v687q0 10 7 19t17 9h168q10 0 18.5 -10t8.5 -21v-651q0 -154 50 -217t154.5 -63t177.5 84t73 249v601q0 10 7 19t17 9h170q10 0 17.5 -11t7.5 -22v-835l4 -238q0 -27 -23 -26h-166q-25 0 -22 20v82q-111 -135 -299 -135q-190 0 -288.5 116.5t-98.5 333.5z M420 1167.5q0 12.5 8 22.5l137 194q14 16 23.5 23.5t27.5 7.5h197q23 0 23 -14q0 -8 -9 -17l-170 -198q-14 -16 -22 -23.5t-25 -7.5h-172q-18 0 -18 12.5z" />
<glyph unicode="&#xfb;" horiz-adv-x="1142" d="M123 317v687q0 10 7 19t17 9h168q10 0 18.5 -10t8.5 -21v-651q0 -154 50 -217t154.5 -63t177.5 84t73 249v601q0 10 7 19t17 9h170q10 0 17.5 -11t7.5 -22v-835l4 -238q0 -27 -23 -26h-166q-25 0 -22 20v82q-111 -135 -299 -135q-190 0 -288.5 116.5t-98.5 333.5z M250 1167.5q0 12.5 8 22.5l135 192q14 16 22.5 23.5t26.5 7.5h256q18 0 27.5 -7t24.5 -24l133 -192q8 -10 8 -22.5t-19 -12.5h-147q-16 0 -24.5 7t-22.5 24l-107 117l-108 -117q-14 -16 -22.5 -23.5t-24.5 -7.5h-148q-18 0 -18 12.5z" />
<glyph unicode="&#xfc;" horiz-adv-x="1142" d="M123 317v687q0 10 7 19t17 9h168q10 0 18.5 -10t8.5 -21v-651q0 -154 50 -217t154.5 -63t177.5 84t73 249v601q0 10 7 19t17 9h170q10 0 17.5 -11t7.5 -22v-835l4 -238q0 -27 -23 -26h-166q-25 0 -22 20v82q-111 -135 -299 -135q-190 0 -288.5 116.5t-98.5 333.5z M260 1264q0 53 35 90t88 37t90 -37t37 -90t-37 -88t-90 -35t-88 35t-35 88zM649 1264q0 53 35 90t88 37t90 -37t37 -90t-37 -88t-90 -35t-88 35t-35 88z" />
<glyph unicode="&#xfe;" horiz-adv-x="1226" d="M172 -295v1679h229v-409q66 35 168.5 35t192.5 -36t154.5 -108t101.5 -178q37 -102 37 -241.5t-37 -244t-134.5 -212t-316.5 -107.5q-100 0 -166 35v-213h-229zM401 156q66 -61 176.5 -61.5t178 86.5t67.5 265t-67.5 265.5t-178 87.5t-176.5 -64v-579z" />
<glyph unicode="&#x152;" horiz-adv-x="1837" d="M102 575q0 313 184.5 497.5t491.5 184.5h903q23 0 27 -7t4 -25v-152q0 -20 -6 -27.5t-25 -7.5h-555v-336h529q31 0 31 -32v-154q0 -35 -31 -35h-529v-364h580q29 0 29 -35v-154q0 -32 -29 -32h-928q-307 0 -491.5 182t-184.5 497zM350 578.5q0 -226.5 107.5 -344 t318.5 -117.5h125v911h-123q-223 0 -325.5 -111.5t-102.5 -338z" />
<glyph unicode="&#x153;" horiz-adv-x="1900" d="M61 465q0 256 136 420q145 176 399 176q252 0 399 -174q12 -18 17 -23q2 4 8 10q125 186 360 187q233 0 355 -174q104 -152 104 -414l-2 -59q0 -16 -9 -24.5t-20 -8.5h-673q10 -137 85.5 -224t206.5 -87q182 0 312 77q14 8 18 -2t4 -26v-142q0 -33 -30 -49 q-115 -61 -314 -61q-256 0 -385 151l-28 37q-152 -188 -408 -188q-254 0 -399 176q-135 164 -136 422zM289 465q0 -156 73 -270q82 -127 234 -127t233 127q74 115 74 270q0 158 -74 268q-83 127 -233 127q-152 0 -234 -127q-74 -113 -73 -268zM1139 584h469q0 100 -54 182 q-63 98 -165 98q-57 0 -99.5 -24.5t-72.5 -63.5q-59 -74 -78 -192z" />
<glyph unicode="&#x2dc;" horiz-adv-x="1843" d="M406 1333q92 90 166.5 129t148.5 39q123 0 233 -67q45 -27 78 -38.5t76 -11.5t72.5 4.5t61.5 16.5t112 80l84 -84q-92 -90 -167 -129t-149 -39q-123 0 -233 67q-86 49 -141.5 49.5t-85 -4t-61.5 -16.5t-112 -80z" />
<glyph unicode="&#x2000;" horiz-adv-x="810" />
<glyph unicode="&#x2001;" horiz-adv-x="1620" />
<glyph unicode="&#x2002;" horiz-adv-x="810" />
<glyph unicode="&#x2003;" horiz-adv-x="1620" />
<glyph unicode="&#x2004;" horiz-adv-x="540" />
<glyph unicode="&#x2005;" horiz-adv-x="405" />
<glyph unicode="&#x2006;" horiz-adv-x="270" />
<glyph unicode="&#x2007;" horiz-adv-x="270" />
<glyph unicode="&#x2008;" horiz-adv-x="202" />
<glyph unicode="&#x2009;" horiz-adv-x="324" />
<glyph unicode="&#x200a;" horiz-adv-x="90" />
<glyph unicode="&#x2010;" horiz-adv-x="743" d="M109 614v164q0 10 8 17.5t18 7.5h496q27 0 26 -25v-164q0 -25 -26 -24h-496q-10 0 -18 7t-8 17z" />
<glyph unicode="&#x2011;" horiz-adv-x="743" d="M109 614v164q0 10 8 17.5t18 7.5h496q27 0 26 -25v-164q0 -25 -26 -24h-496q-10 0 -18 7t-8 17z" />
<glyph unicode="&#x2012;" horiz-adv-x="743" d="M109 614v164q0 10 8 17.5t18 7.5h496q27 0 26 -25v-164q0 -25 -26 -24h-496q-10 0 -18 7t-8 17z" />
<glyph unicode="&#x2013;" horiz-adv-x="839" d="M117 541v196h606v-196h-606z" />
<glyph unicode="&#x2014;" horiz-adv-x="1769" d="M0 547v184h1769v-184h-1769z" />
<glyph unicode="&#x2018;" horiz-adv-x="378" d="M61 1159q-8 123 58 230q70 109 170 127q27 12 26 -11v-80q0 -23 -12 -30q-82 -37 -90 -121q43 -10 81 -42t38 -92.5t-38 -101.5t-96.5 -41t-95.5 47q-37 45 -41 115z" />
<glyph unicode="&#x2019;" horiz-adv-x="378" d="M57 1369.5q0 60.5 38 101t96.5 40.5t95.5 -47t41 -116q10 -125 -60 -228q-70 -109 -170 -127q-27 -12 -26 11v79q0 25 14 31q35 16 60.5 48t27.5 73q-43 10 -80 42t-37 92.5z" />
<glyph unicode="&#x201c;" horiz-adv-x="716" d="M66 1159q-10 125 59 230q66 106 168 127q29 12 29 -11v-80q0 -23 -13 -30q-80 -35 -90 -121q41 -10 80 -42t39 -92.5t-39 -101.5t-96.5 -41t-96.5 47q-37 45 -40 115zM377 1159q-8 123 63 230q66 106 168 127q29 12 29 -11v-80q0 -25 -14 -30q-37 -16 -61.5 -48 t-26.5 -73q41 -10 78.5 -42t37.5 -92.5t-38 -101.5t-96 -41t-95 47q-41 45 -45 115z" />
<glyph unicode="&#x201d;" horiz-adv-x="716" d="M63 1369.5q0 60.5 39 101t96.5 40.5t95.5 -47t42 -116q10 -125 -60 -228q-66 -106 -167 -127q-29 -12 -29 11v79q0 23 12 31q86 37 90 121q-41 10 -80 42t-39 92.5zM379 1369.5q0 60.5 38 101t95 40.5t95 -47t44 -116q10 -123 -61 -228q-66 -106 -168 -127 q-29 -12 -29 11v79q0 25 15 31q37 16 61.5 48t26.5 73q-41 10 -79 42t-38 92.5z" />
<glyph unicode="&#x2022;" horiz-adv-x="1925" d="M735 625q0 92 67.5 159.5t160.5 67.5q92 0 159.5 -67.5t67.5 -159.5t-66.5 -159t-160.5 -67t-161 66.5t-67 159.5z" />
<glyph unicode="&#x202f;" horiz-adv-x="324" />
<glyph unicode="&#x2039;" horiz-adv-x="1925" d="M238 614l1448 885v-74l-1307 -811l1307 -809v-77z" />
<glyph unicode="&#x203a;" horiz-adv-x="1925" d="M238 -195l1306 809l-1306 811v74l1448 -885l-1448 -886v77z" />
<glyph unicode="&#x205f;" horiz-adv-x="405" />
<glyph unicode="&#x20ac;" horiz-adv-x="1925" d="M451 389v166h102q-2 35 -2 65.5t2 61.5h-102v166h120q18 115 59.5 195.5t119.5 166.5q156 174 370 174q131 0 215 -21.5t140 -74.5l-101 -184q-94 78 -248 78q-133 0 -231 -115q-84 -102 -98 -219h458l-69 -166h-404q-4 -37 -4 -82v-45h346l-59 -166h-268 q12 -106 92 -192q98 -119 217 -119q205 0 348 158v-252q-76 -59 -162 -82q-88 -23 -202 -23q-209 0 -371 168q-66 80 -97.5 154.5t-48.5 187.5h-122z" />
<glyph unicode="&#x25fc;" horiz-adv-x="1034" d="M0 0v1034h1034v-1034h-1034z" />
</font>
</defs>
</svg>
