<?xml version="1.0" encoding="UTF-8"?>
<!DOCTYPE svg PUBLIC "-//W3C//DTD SVG 1.1//EN" "http://www.w3.org/Graphics/SVG/1.1/DTD/svg11.dtd">
<svg version="1.1" xmlns="http://www.w3.org/2000/svg" xmlns:xlink="http://www.w3.org/1999/xlink" x="0px" y="0px" width="35" height="50" viewBox="0, 0, 35, 50">
  <g id="Layer 1">
    <path d="M19.625,36.443 L23.251,13.334" fill-opacity="0" stroke="#0F7964" stroke-width="1.76" stroke-linecap="round" stroke-linejoin="round"/>
    <path d="M17.599,14.933 L17.403,14.933 C10.206,14.933 4.372,20.767 4.372,27.964 L4.372,28.159 C4.372,35.356 10.206,41.19 17.403,41.19 L17.599,41.19 C24.794,41.19 30.628,35.356 30.628,28.159 L30.628,27.964 C30.628,20.767 24.794,14.933 17.599,14.933 z" fill="#0F7964"/>
    <path d="M15.045,31.072 C15.045,31.072 16.498,29.504 14.227,27.651 C11.956,25.8 9.471,23.127 9.471,23.127" fill-opacity="0" stroke="#0F7964" stroke-width="0.8" stroke-linecap="round"/>
    <path d="M19.681,35.74 L11.821,26.804" fill-opacity="0" stroke="#FFFFFF" stroke-width="1.76"/>
    <path d="M19.818,35.891 L22.611,17.346" fill-opacity="0" stroke="#FFFFFF" stroke-width="1.76" stroke-linecap="round" stroke-linejoin="round"/>
    <path d="M9.427,27.948 C8.428,26.949 8.428,25.328 9.427,24.329 C10.426,23.33 12.047,23.33 13.046,24.329 C14.046,25.328 14.046,26.949 13.046,27.948 C12.047,28.947 10.426,28.947 9.427,27.948 z" fill="#FFFFFF"/>
    <path d="M21.863,13.179 C20.864,12.18 20.864,10.559 21.863,9.56 C22.862,8.56 24.483,8.56 25.482,9.56 C26.481,10.559 26.481,12.18 25.482,13.179 C24.483,14.178 22.862,14.178 21.863,13.179 z" fill="#0F7964"/>
    <path d="M17.866,36.364 C16.867,35.365 16.867,33.744 17.866,32.745 C18.865,31.745 20.486,31.745 21.485,32.745 C22.485,33.744 22.485,35.365 21.485,36.364 C20.486,37.363 18.865,37.363 17.866,36.364 z" fill="#FFFFFF"/>
  </g>
  <defs/>
</svg>
