<?xml version="1.0" encoding="UTF-8"?>
<!DOCTYPE svg PUBLIC "-//W3C//DTD SVG 1.1//EN" "http://www.w3.org/Graphics/SVG/1.1/DTD/svg11.dtd">
<svg version="1.1" xmlns="http://www.w3.org/2000/svg" xmlns:xlink="http://www.w3.org/1999/xlink" x="0px" y="0px" width="160" height="40" viewBox="0, 0, 160, 40">
  <g id="Layer 1">
    <text transform="matrix(1, 0, 0, 1, 90.319, 20)">
      <tspan x="-52.309" y="10.5" font-family="NanumGothic" font-size="32.905" fill="#0F7964">bitcoin</tspan>
    </text>
    <g>
      <path d="M149.549,36.066 C149.22,36.702 148.748,37.185 148.134,37.514 C147.542,37.843 146.862,38.007 146.094,38.007 C145.655,38.007 145.293,37.997 145.008,37.975 C144.745,37.975 144.492,37.931 144.251,37.843 C144.054,37.755 143.955,37.602 143.955,37.382 L143.955,35.276 C143.955,35.079 144.087,34.98 144.35,34.98 C145.008,35.09 145.545,35.057 145.962,34.882 C146.401,34.728 146.653,34.454 146.719,34.059 C146.763,33.861 146.796,33.467 146.818,32.874 C146.84,32.304 146.851,31.679 146.851,30.999 L146.851,15.105 C146.851,14.82 146.982,14.678 147.245,14.678 L150.009,14.678 C150.251,14.678 150.371,14.82 150.371,15.105 L150.371,31.097 C150.371,32.15 150.306,33.105 150.174,33.96 C150.064,34.816 149.856,35.518 149.549,36.066" fill="#0F7964"/>
      <path d="M149.549,36.066 C149.22,36.702 148.748,37.185 148.134,37.514 C147.542,37.843 146.862,38.007 146.094,38.007 C145.655,38.007 145.293,37.997 145.008,37.975 C144.745,37.975 144.492,37.931 144.251,37.843 C144.054,37.755 143.955,37.602 143.955,37.382 L143.955,35.276 C143.955,35.079 144.087,34.98 144.35,34.98 C145.008,35.09 145.545,35.057 145.962,34.882 C146.401,34.728 146.653,34.454 146.719,34.059 C146.763,33.861 146.796,33.467 146.818,32.874 C146.84,32.304 146.851,31.679 146.851,30.999 L146.851,15.105 C146.851,14.82 146.982,14.678 147.245,14.678 L150.009,14.678 C150.251,14.678 150.371,14.82 150.371,15.105 L150.371,31.097 C150.371,32.15 150.306,33.105 150.174,33.96 C150.064,34.816 149.856,35.518 149.549,36.066" fill-opacity="0" stroke="#0F7964" stroke-width="0.56"/>
    </g>
    <g>
      <path d="M148.747,7.694 L146.824,9.397 L148.605,11.305 L150.564,9.532 z" fill="#0F7964"/>
      <path d="M148.747,7.694 L146.824,9.397 L148.605,11.305 L150.564,9.532 z" fill-opacity="0" stroke="#0F7964" stroke-width="1.393" stroke-linecap="round" stroke-linejoin="round"/>
    </g>
    <path d="M24.689,31.443 L28.314,8.334" fill-opacity="0" stroke="#0F7964" stroke-width="1.76" stroke-linecap="round" stroke-linejoin="round"/>
    <path d="M22.662,9.933 L22.466,9.933 C15.27,9.933 9.436,15.767 9.436,22.964 L9.436,23.159 C9.436,30.356 15.27,36.19 22.466,36.19 L22.662,36.19 C29.857,36.19 35.691,30.356 35.691,23.159 L35.691,22.964 C35.691,15.767 29.857,9.933 22.662,9.933 z" fill="#0F7964"/>
    <path d="M20.108,26.072 C20.108,26.072 21.562,24.504 19.291,22.651 C17.02,20.8 14.534,18.127 14.534,18.127" fill-opacity="0" stroke="#0F7964" stroke-width="0.8" stroke-linecap="round"/>
    <path d="M24.745,30.74 L16.884,21.804" fill-opacity="0" stroke="#FFFFFF" stroke-width="1.76"/>
    <path d="M24.882,30.891 L27.675,12.346" fill-opacity="0" stroke="#FFFFFF" stroke-width="1.76" stroke-linecap="round" stroke-linejoin="round"/>
    <path d="M14.491,22.948 C13.491,21.949 13.491,20.328 14.491,19.329 C15.49,18.33 17.111,18.33 18.11,19.329 C19.109,20.328 19.109,21.949 18.11,22.948 C17.111,23.947 15.49,23.947 14.491,22.948 z" fill="#FFFFFF"/>
    <path d="M26.926,8.179 C25.927,7.18 25.927,5.559 26.926,4.56 C27.925,3.56 29.546,3.56 30.546,4.56 C31.545,5.559 31.545,7.18 30.546,8.179 C29.546,9.178 27.925,9.178 26.926,8.179 z" fill="#0F7964"/>
    <path d="M22.929,31.364 C21.93,30.365 21.93,28.744 22.929,27.745 C23.929,26.745 25.55,26.745 26.549,27.745 C27.548,28.744 27.548,30.365 26.549,31.364 C25.55,32.363 23.929,32.363 22.929,31.364 z" fill="#FFFFFF"/>
  </g>
  <defs/>
</svg>
